<?xml version="1.0" encoding="utf-8" standalone="no"?>
<!DOCTYPE svg PUBLIC "-//W3C//DTD SVG 1.1//EN"
  "http://www.w3.org/Graphics/SVG/1.1/DTD/svg11.dtd">
<!-- Created with matplotlib (http://matplotlib.org/) -->
<svg height="288pt" version="1.1" viewBox="0 0 432 288" width="432pt" xmlns="http://www.w3.org/2000/svg" xmlns:xlink="http://www.w3.org/1999/xlink">
 <defs>
  <style type="text/css">
*{stroke-linecap:butt;stroke-linejoin:round;}
  </style>
 </defs>
 <g id="figure_1">
  <g id="patch_1">
   <path d="M 0 288 
L 432 288 
L 432 0 
L 0 0 
z
" style="fill:#ffffff;"/>
  </g>
  <g id="axes_1">
   <g id="patch_2">
    <path d="M 54 252 
L 388.8 252 
L 388.8 34.56 
L 54 34.56 
z
" style="fill:#ffffff;"/>
   </g>
   <g id="matplotlib.axis_1">
    <g id="xtick_1">
     <g id="line2d_1">
      <defs>
       <path d="M 0 0 
L 0 3.5 
" id="m12619a96b9" style="stroke:#000000;stroke-width:0.8;"/>
      </defs>
      <g>
       <use style="stroke:#000000;stroke-width:0.8;" x="69.218182" xlink:href="#m12619a96b9" y="252"/>
      </g>
     </g>
     <g id="text_1">
      <!-- 0 -->
      <defs>
       <path d="M 31.78125 66.40625 
Q 24.171875 66.40625 20.328125 58.90625 
Q 16.5 51.421875 16.5 36.375 
Q 16.5 21.390625 20.328125 13.890625 
Q 24.171875 6.390625 31.78125 6.390625 
Q 39.453125 6.390625 43.28125 13.890625 
Q 47.125 21.390625 47.125 36.375 
Q 47.125 51.421875 43.28125 58.90625 
Q 39.453125 66.40625 31.78125 66.40625 
z
M 31.78125 74.21875 
Q 44.046875 74.21875 50.515625 64.515625 
Q 56.984375 54.828125 56.984375 36.375 
Q 56.984375 17.96875 50.515625 8.265625 
Q 44.046875 -1.421875 31.78125 -1.421875 
Q 19.53125 -1.421875 13.0625 8.265625 
Q 6.59375 17.96875 6.59375 36.375 
Q 6.59375 54.828125 13.0625 64.515625 
Q 19.53125 74.21875 31.78125 74.21875 
z
" id="DejaVuSans-30"/>
      </defs>
      <g transform="translate(66.036932 266.598437)scale(0.1 -0.1)">
       <use xlink:href="#DejaVuSans-30"/>
      </g>
     </g>
    </g>
    <g id="xtick_2">
     <g id="line2d_2">
      <g>
       <use style="stroke:#000000;stroke-width:0.8;" x="115.495844" xlink:href="#m12619a96b9" y="252"/>
      </g>
     </g>
     <g id="text_2">
      <!-- 20 -->
      <defs>
       <path d="M 19.1875 8.296875 
L 53.609375 8.296875 
L 53.609375 0 
L 7.328125 0 
L 7.328125 8.296875 
Q 12.9375 14.109375 22.625 23.890625 
Q 32.328125 33.6875 34.8125 36.53125 
Q 39.546875 41.84375 41.421875 45.53125 
Q 43.3125 49.21875 43.3125 52.78125 
Q 43.3125 58.59375 39.234375 62.25 
Q 35.15625 65.921875 28.609375 65.921875 
Q 23.96875 65.921875 18.8125 64.3125 
Q 13.671875 62.703125 7.8125 59.421875 
L 7.8125 69.390625 
Q 13.765625 71.78125 18.9375 73 
Q 24.125 74.21875 28.421875 74.21875 
Q 39.75 74.21875 46.484375 68.546875 
Q 53.21875 62.890625 53.21875 53.421875 
Q 53.21875 48.921875 51.53125 44.890625 
Q 49.859375 40.875 45.40625 35.40625 
Q 44.1875 33.984375 37.640625 27.21875 
Q 31.109375 20.453125 19.1875 8.296875 
z
" id="DejaVuSans-32"/>
      </defs>
      <g transform="translate(109.133344 266.598437)scale(0.1 -0.1)">
       <use xlink:href="#DejaVuSans-32"/>
       <use x="63.623047" xlink:href="#DejaVuSans-30"/>
      </g>
     </g>
    </g>
    <g id="xtick_3">
     <g id="line2d_3">
      <g>
       <use style="stroke:#000000;stroke-width:0.8;" x="161.773506" xlink:href="#m12619a96b9" y="252"/>
      </g>
     </g>
     <g id="text_3">
      <!-- 40 -->
      <defs>
       <path d="M 37.796875 64.3125 
L 12.890625 25.390625 
L 37.796875 25.390625 
z
M 35.203125 72.90625 
L 47.609375 72.90625 
L 47.609375 25.390625 
L 58.015625 25.390625 
L 58.015625 17.1875 
L 47.609375 17.1875 
L 47.609375 0 
L 37.796875 0 
L 37.796875 17.1875 
L 4.890625 17.1875 
L 4.890625 26.703125 
z
" id="DejaVuSans-34"/>
      </defs>
      <g transform="translate(155.411006 266.598437)scale(0.1 -0.1)">
       <use xlink:href="#DejaVuSans-34"/>
       <use x="63.623047" xlink:href="#DejaVuSans-30"/>
      </g>
     </g>
    </g>
    <g id="xtick_4">
     <g id="line2d_4">
      <g>
       <use style="stroke:#000000;stroke-width:0.8;" x="208.051169" xlink:href="#m12619a96b9" y="252"/>
      </g>
     </g>
     <g id="text_4">
      <!-- 60 -->
      <defs>
       <path d="M 33.015625 40.375 
Q 26.375 40.375 22.484375 35.828125 
Q 18.609375 31.296875 18.609375 23.390625 
Q 18.609375 15.53125 22.484375 10.953125 
Q 26.375 6.390625 33.015625 6.390625 
Q 39.65625 6.390625 43.53125 10.953125 
Q 47.40625 15.53125 47.40625 23.390625 
Q 47.40625 31.296875 43.53125 35.828125 
Q 39.65625 40.375 33.015625 40.375 
z
M 52.59375 71.296875 
L 52.59375 62.3125 
Q 48.875 64.0625 45.09375 64.984375 
Q 41.3125 65.921875 37.59375 65.921875 
Q 27.828125 65.921875 22.671875 59.328125 
Q 17.53125 52.734375 16.796875 39.40625 
Q 19.671875 43.65625 24.015625 45.921875 
Q 28.375 48.1875 33.59375 48.1875 
Q 44.578125 48.1875 50.953125 41.515625 
Q 57.328125 34.859375 57.328125 23.390625 
Q 57.328125 12.15625 50.6875 5.359375 
Q 44.046875 -1.421875 33.015625 -1.421875 
Q 20.359375 -1.421875 13.671875 8.265625 
Q 6.984375 17.96875 6.984375 36.375 
Q 6.984375 53.65625 15.1875 63.9375 
Q 23.390625 74.21875 37.203125 74.21875 
Q 40.921875 74.21875 44.703125 73.484375 
Q 48.484375 72.75 52.59375 71.296875 
z
" id="DejaVuSans-36"/>
      </defs>
      <g transform="translate(201.688669 266.598437)scale(0.1 -0.1)">
       <use xlink:href="#DejaVuSans-36"/>
       <use x="63.623047" xlink:href="#DejaVuSans-30"/>
      </g>
     </g>
    </g>
    <g id="xtick_5">
     <g id="line2d_5">
      <g>
       <use style="stroke:#000000;stroke-width:0.8;" x="254.328831" xlink:href="#m12619a96b9" y="252"/>
      </g>
     </g>
     <g id="text_5">
      <!-- 80 -->
      <defs>
       <path d="M 31.78125 34.625 
Q 24.75 34.625 20.71875 30.859375 
Q 16.703125 27.09375 16.703125 20.515625 
Q 16.703125 13.921875 20.71875 10.15625 
Q 24.75 6.390625 31.78125 6.390625 
Q 38.8125 6.390625 42.859375 10.171875 
Q 46.921875 13.96875 46.921875 20.515625 
Q 46.921875 27.09375 42.890625 30.859375 
Q 38.875 34.625 31.78125 34.625 
z
M 21.921875 38.8125 
Q 15.578125 40.375 12.03125 44.71875 
Q 8.5 49.078125 8.5 55.328125 
Q 8.5 64.0625 14.71875 69.140625 
Q 20.953125 74.21875 31.78125 74.21875 
Q 42.671875 74.21875 48.875 69.140625 
Q 55.078125 64.0625 55.078125 55.328125 
Q 55.078125 49.078125 51.53125 44.71875 
Q 48 40.375 41.703125 38.8125 
Q 48.828125 37.15625 52.796875 32.3125 
Q 56.78125 27.484375 56.78125 20.515625 
Q 56.78125 9.90625 50.3125 4.234375 
Q 43.84375 -1.421875 31.78125 -1.421875 
Q 19.734375 -1.421875 13.25 4.234375 
Q 6.78125 9.90625 6.78125 20.515625 
Q 6.78125 27.484375 10.78125 32.3125 
Q 14.796875 37.15625 21.921875 38.8125 
z
M 18.3125 54.390625 
Q 18.3125 48.734375 21.84375 45.5625 
Q 25.390625 42.390625 31.78125 42.390625 
Q 38.140625 42.390625 41.71875 45.5625 
Q 45.3125 48.734375 45.3125 54.390625 
Q 45.3125 60.0625 41.71875 63.234375 
Q 38.140625 66.40625 31.78125 66.40625 
Q 25.390625 66.40625 21.84375 63.234375 
Q 18.3125 60.0625 18.3125 54.390625 
z
" id="DejaVuSans-38"/>
      </defs>
      <g transform="translate(247.966331 266.598437)scale(0.1 -0.1)">
       <use xlink:href="#DejaVuSans-38"/>
       <use x="63.623047" xlink:href="#DejaVuSans-30"/>
      </g>
     </g>
    </g>
    <g id="xtick_6">
     <g id="line2d_6">
      <g>
       <use style="stroke:#000000;stroke-width:0.8;" x="300.606493" xlink:href="#m12619a96b9" y="252"/>
      </g>
     </g>
     <g id="text_6">
      <!-- 100 -->
      <defs>
       <path d="M 12.40625 8.296875 
L 28.515625 8.296875 
L 28.515625 63.921875 
L 10.984375 60.40625 
L 10.984375 69.390625 
L 28.421875 72.90625 
L 38.28125 72.90625 
L 38.28125 8.296875 
L 54.390625 8.296875 
L 54.390625 0 
L 12.40625 0 
z
" id="DejaVuSans-31"/>
      </defs>
      <g transform="translate(291.062743 266.598437)scale(0.1 -0.1)">
       <use xlink:href="#DejaVuSans-31"/>
       <use x="63.623047" xlink:href="#DejaVuSans-30"/>
       <use x="127.246094" xlink:href="#DejaVuSans-30"/>
      </g>
     </g>
    </g>
    <g id="xtick_7">
     <g id="line2d_7">
      <g>
       <use style="stroke:#000000;stroke-width:0.8;" x="346.884156" xlink:href="#m12619a96b9" y="252"/>
      </g>
     </g>
     <g id="text_7">
      <!-- 120 -->
      <g transform="translate(337.340406 266.598437)scale(0.1 -0.1)">
       <use xlink:href="#DejaVuSans-31"/>
       <use x="63.623047" xlink:href="#DejaVuSans-32"/>
       <use x="127.246094" xlink:href="#DejaVuSans-30"/>
      </g>
     </g>
    </g>
    <g id="text_8">
     <!-- time/s -->
     <defs>
      <path d="M 18.3125 70.21875 
L 18.3125 54.6875 
L 36.8125 54.6875 
L 36.8125 47.703125 
L 18.3125 47.703125 
L 18.3125 18.015625 
Q 18.3125 11.328125 20.140625 9.421875 
Q 21.96875 7.515625 27.59375 7.515625 
L 36.8125 7.515625 
L 36.8125 0 
L 27.59375 0 
Q 17.1875 0 13.234375 3.875 
Q 9.28125 7.765625 9.28125 18.015625 
L 9.28125 47.703125 
L 2.6875 47.703125 
L 2.6875 54.6875 
L 9.28125 54.6875 
L 9.28125 70.21875 
z
" id="DejaVuSans-74"/>
      <path d="M 9.421875 54.6875 
L 18.40625 54.6875 
L 18.40625 0 
L 9.421875 0 
z
M 9.421875 75.984375 
L 18.40625 75.984375 
L 18.40625 64.59375 
L 9.421875 64.59375 
z
" id="DejaVuSans-69"/>
      <path d="M 52 44.1875 
Q 55.375 50.25 60.0625 53.125 
Q 64.75 56 71.09375 56 
Q 79.640625 56 84.28125 50.015625 
Q 88.921875 44.046875 88.921875 33.015625 
L 88.921875 0 
L 79.890625 0 
L 79.890625 32.71875 
Q 79.890625 40.578125 77.09375 44.375 
Q 74.3125 48.1875 68.609375 48.1875 
Q 61.625 48.1875 57.5625 43.546875 
Q 53.515625 38.921875 53.515625 30.90625 
L 53.515625 0 
L 44.484375 0 
L 44.484375 32.71875 
Q 44.484375 40.625 41.703125 44.40625 
Q 38.921875 48.1875 33.109375 48.1875 
Q 26.21875 48.1875 22.15625 43.53125 
Q 18.109375 38.875 18.109375 30.90625 
L 18.109375 0 
L 9.078125 0 
L 9.078125 54.6875 
L 18.109375 54.6875 
L 18.109375 46.1875 
Q 21.1875 51.21875 25.484375 53.609375 
Q 29.78125 56 35.6875 56 
Q 41.65625 56 45.828125 52.96875 
Q 50 49.953125 52 44.1875 
z
" id="DejaVuSans-6d"/>
      <path d="M 56.203125 29.59375 
L 56.203125 25.203125 
L 14.890625 25.203125 
Q 15.484375 15.921875 20.484375 11.0625 
Q 25.484375 6.203125 34.421875 6.203125 
Q 39.59375 6.203125 44.453125 7.46875 
Q 49.3125 8.734375 54.109375 11.28125 
L 54.109375 2.78125 
Q 49.265625 0.734375 44.1875 -0.34375 
Q 39.109375 -1.421875 33.890625 -1.421875 
Q 20.796875 -1.421875 13.15625 6.1875 
Q 5.515625 13.8125 5.515625 26.8125 
Q 5.515625 40.234375 12.765625 48.109375 
Q 20.015625 56 32.328125 56 
Q 43.359375 56 49.78125 48.890625 
Q 56.203125 41.796875 56.203125 29.59375 
z
M 47.21875 32.234375 
Q 47.125 39.59375 43.09375 43.984375 
Q 39.0625 48.390625 32.421875 48.390625 
Q 24.90625 48.390625 20.390625 44.140625 
Q 15.875 39.890625 15.1875 32.171875 
z
" id="DejaVuSans-65"/>
      <path d="M 25.390625 72.90625 
L 33.6875 72.90625 
L 8.296875 -9.28125 
L 0 -9.28125 
z
" id="DejaVuSans-2f"/>
      <path d="M 44.28125 53.078125 
L 44.28125 44.578125 
Q 40.484375 46.53125 36.375 47.5 
Q 32.28125 48.484375 27.875 48.484375 
Q 21.1875 48.484375 17.84375 46.4375 
Q 14.5 44.390625 14.5 40.28125 
Q 14.5 37.15625 16.890625 35.375 
Q 19.28125 33.59375 26.515625 31.984375 
L 29.59375 31.296875 
Q 39.15625 29.25 43.1875 25.515625 
Q 47.21875 21.78125 47.21875 15.09375 
Q 47.21875 7.46875 41.1875 3.015625 
Q 35.15625 -1.421875 24.609375 -1.421875 
Q 20.21875 -1.421875 15.453125 -0.5625 
Q 10.6875 0.296875 5.421875 2 
L 5.421875 11.28125 
Q 10.40625 8.6875 15.234375 7.390625 
Q 20.0625 6.109375 24.8125 6.109375 
Q 31.15625 6.109375 34.5625 8.28125 
Q 37.984375 10.453125 37.984375 14.40625 
Q 37.984375 18.0625 35.515625 20.015625 
Q 33.0625 21.96875 24.703125 23.78125 
L 21.578125 24.515625 
Q 13.234375 26.265625 9.515625 29.90625 
Q 5.8125 33.546875 5.8125 39.890625 
Q 5.8125 47.609375 11.28125 51.796875 
Q 16.75 56 26.8125 56 
Q 31.78125 56 36.171875 55.265625 
Q 40.578125 54.546875 44.28125 53.078125 
z
" id="DejaVuSans-73"/>
     </defs>
     <g transform="translate(205.814844 280.276563)scale(0.1 -0.1)">
      <use xlink:href="#DejaVuSans-74"/>
      <use x="39.208984" xlink:href="#DejaVuSans-69"/>
      <use x="66.992188" xlink:href="#DejaVuSans-6d"/>
      <use x="164.404297" xlink:href="#DejaVuSans-65"/>
      <use x="225.927734" xlink:href="#DejaVuSans-2f"/>
      <use x="259.619141" xlink:href="#DejaVuSans-73"/>
     </g>
    </g>
   </g>
   <g id="matplotlib.axis_2">
    <g id="ytick_1">
     <g id="line2d_8">
      <defs>
       <path d="M 0 0 
L -3.5 0 
" id="meaad06c88d" style="stroke:#000000;stroke-width:0.8;"/>
      </defs>
      <g>
       <use style="stroke:#000000;stroke-width:0.8;" x="54" xlink:href="#meaad06c88d" y="241.219284"/>
      </g>
     </g>
     <g id="text_9">
      <!-- 0.1 -->
      <defs>
       <path d="M 10.6875 12.40625 
L 21 12.40625 
L 21 0 
L 10.6875 0 
z
" id="DejaVuSans-2e"/>
      </defs>
      <g transform="translate(31.096875 245.018502)scale(0.1 -0.1)">
       <use xlink:href="#DejaVuSans-30"/>
       <use x="63.623047" xlink:href="#DejaVuSans-2e"/>
       <use x="95.410156" xlink:href="#DejaVuSans-31"/>
      </g>
     </g>
    </g>
    <g id="ytick_2">
     <g id="line2d_9">
      <g>
       <use style="stroke:#000000;stroke-width:0.8;" x="54" xlink:href="#meaad06c88d" y="216.973886"/>
      </g>
     </g>
     <g id="text_10">
      <!-- 0.2 -->
      <g transform="translate(31.096875 220.773104)scale(0.1 -0.1)">
       <use xlink:href="#DejaVuSans-30"/>
       <use x="63.623047" xlink:href="#DejaVuSans-2e"/>
       <use x="95.410156" xlink:href="#DejaVuSans-32"/>
      </g>
     </g>
    </g>
    <g id="ytick_3">
     <g id="line2d_10">
      <g>
       <use style="stroke:#000000;stroke-width:0.8;" x="54" xlink:href="#meaad06c88d" y="192.728488"/>
      </g>
     </g>
     <g id="text_11">
      <!-- 0.3 -->
      <defs>
       <path d="M 40.578125 39.3125 
Q 47.65625 37.796875 51.625 33 
Q 55.609375 28.21875 55.609375 21.1875 
Q 55.609375 10.40625 48.1875 4.484375 
Q 40.765625 -1.421875 27.09375 -1.421875 
Q 22.515625 -1.421875 17.65625 -0.515625 
Q 12.796875 0.390625 7.625 2.203125 
L 7.625 11.71875 
Q 11.71875 9.328125 16.59375 8.109375 
Q 21.484375 6.890625 26.8125 6.890625 
Q 36.078125 6.890625 40.9375 10.546875 
Q 45.796875 14.203125 45.796875 21.1875 
Q 45.796875 27.640625 41.28125 31.265625 
Q 36.765625 34.90625 28.71875 34.90625 
L 20.21875 34.90625 
L 20.21875 43.015625 
L 29.109375 43.015625 
Q 36.375 43.015625 40.234375 45.921875 
Q 44.09375 48.828125 44.09375 54.296875 
Q 44.09375 59.90625 40.109375 62.90625 
Q 36.140625 65.921875 28.71875 65.921875 
Q 24.65625 65.921875 20.015625 65.03125 
Q 15.375 64.15625 9.8125 62.3125 
L 9.8125 71.09375 
Q 15.4375 72.65625 20.34375 73.4375 
Q 25.25 74.21875 29.59375 74.21875 
Q 40.828125 74.21875 47.359375 69.109375 
Q 53.90625 64.015625 53.90625 55.328125 
Q 53.90625 49.265625 50.4375 45.09375 
Q 46.96875 40.921875 40.578125 39.3125 
z
" id="DejaVuSans-33"/>
      </defs>
      <g transform="translate(31.096875 196.527707)scale(0.1 -0.1)">
       <use xlink:href="#DejaVuSans-30"/>
       <use x="63.623047" xlink:href="#DejaVuSans-2e"/>
       <use x="95.410156" xlink:href="#DejaVuSans-33"/>
      </g>
     </g>
    </g>
    <g id="ytick_4">
     <g id="line2d_11">
      <g>
       <use style="stroke:#000000;stroke-width:0.8;" x="54" xlink:href="#meaad06c88d" y="168.48309"/>
      </g>
     </g>
     <g id="text_12">
      <!-- 0.4 -->
      <g transform="translate(31.096875 172.282309)scale(0.1 -0.1)">
       <use xlink:href="#DejaVuSans-30"/>
       <use x="63.623047" xlink:href="#DejaVuSans-2e"/>
       <use x="95.410156" xlink:href="#DejaVuSans-34"/>
      </g>
     </g>
    </g>
    <g id="ytick_5">
     <g id="line2d_12">
      <g>
       <use style="stroke:#000000;stroke-width:0.8;" x="54" xlink:href="#meaad06c88d" y="144.237692"/>
      </g>
     </g>
     <g id="text_13">
      <!-- 0.5 -->
      <defs>
       <path d="M 10.796875 72.90625 
L 49.515625 72.90625 
L 49.515625 64.59375 
L 19.828125 64.59375 
L 19.828125 46.734375 
Q 21.96875 47.46875 24.109375 47.828125 
Q 26.265625 48.1875 28.421875 48.1875 
Q 40.625 48.1875 47.75 41.5 
Q 54.890625 34.8125 54.890625 23.390625 
Q 54.890625 11.625 47.5625 5.09375 
Q 40.234375 -1.421875 26.90625 -1.421875 
Q 22.3125 -1.421875 17.546875 -0.640625 
Q 12.796875 0.140625 7.71875 1.703125 
L 7.71875 11.625 
Q 12.109375 9.234375 16.796875 8.0625 
Q 21.484375 6.890625 26.703125 6.890625 
Q 35.15625 6.890625 40.078125 11.328125 
Q 45.015625 15.765625 45.015625 23.390625 
Q 45.015625 31 40.078125 35.4375 
Q 35.15625 39.890625 26.703125 39.890625 
Q 22.75 39.890625 18.8125 39.015625 
Q 14.890625 38.140625 10.796875 36.28125 
z
" id="DejaVuSans-35"/>
      </defs>
      <g transform="translate(31.096875 148.036911)scale(0.1 -0.1)">
       <use xlink:href="#DejaVuSans-30"/>
       <use x="63.623047" xlink:href="#DejaVuSans-2e"/>
       <use x="95.410156" xlink:href="#DejaVuSans-35"/>
      </g>
     </g>
    </g>
    <g id="ytick_6">
     <g id="line2d_13">
      <g>
       <use style="stroke:#000000;stroke-width:0.8;" x="54" xlink:href="#meaad06c88d" y="119.992294"/>
      </g>
     </g>
     <g id="text_14">
      <!-- 0.6 -->
      <g transform="translate(31.096875 123.791513)scale(0.1 -0.1)">
       <use xlink:href="#DejaVuSans-30"/>
       <use x="63.623047" xlink:href="#DejaVuSans-2e"/>
       <use x="95.410156" xlink:href="#DejaVuSans-36"/>
      </g>
     </g>
    </g>
    <g id="ytick_7">
     <g id="line2d_14">
      <g>
       <use style="stroke:#000000;stroke-width:0.8;" x="54" xlink:href="#meaad06c88d" y="95.746897"/>
      </g>
     </g>
     <g id="text_15">
      <!-- 0.7 -->
      <defs>
       <path d="M 8.203125 72.90625 
L 55.078125 72.90625 
L 55.078125 68.703125 
L 28.609375 0 
L 18.3125 0 
L 43.21875 64.59375 
L 8.203125 64.59375 
z
" id="DejaVuSans-37"/>
      </defs>
      <g transform="translate(31.096875 99.546115)scale(0.1 -0.1)">
       <use xlink:href="#DejaVuSans-30"/>
       <use x="63.623047" xlink:href="#DejaVuSans-2e"/>
       <use x="95.410156" xlink:href="#DejaVuSans-37"/>
      </g>
     </g>
    </g>
    <g id="ytick_8">
     <g id="line2d_15">
      <g>
       <use style="stroke:#000000;stroke-width:0.8;" x="54" xlink:href="#meaad06c88d" y="71.501499"/>
      </g>
     </g>
     <g id="text_16">
      <!-- 0.8 -->
      <g transform="translate(31.096875 75.300718)scale(0.1 -0.1)">
       <use xlink:href="#DejaVuSans-30"/>
       <use x="63.623047" xlink:href="#DejaVuSans-2e"/>
       <use x="95.410156" xlink:href="#DejaVuSans-38"/>
      </g>
     </g>
    </g>
    <g id="ytick_9">
     <g id="line2d_16">
      <g>
       <use style="stroke:#000000;stroke-width:0.8;" x="54" xlink:href="#meaad06c88d" y="47.256101"/>
      </g>
     </g>
     <g id="text_17">
      <!-- 0.9 -->
      <defs>
       <path d="M 10.984375 1.515625 
L 10.984375 10.5 
Q 14.703125 8.734375 18.5 7.8125 
Q 22.3125 6.890625 25.984375 6.890625 
Q 35.75 6.890625 40.890625 13.453125 
Q 46.046875 20.015625 46.78125 33.40625 
Q 43.953125 29.203125 39.59375 26.953125 
Q 35.25 24.703125 29.984375 24.703125 
Q 19.046875 24.703125 12.671875 31.3125 
Q 6.296875 37.9375 6.296875 49.421875 
Q 6.296875 60.640625 12.9375 67.421875 
Q 19.578125 74.21875 30.609375 74.21875 
Q 43.265625 74.21875 49.921875 64.515625 
Q 56.59375 54.828125 56.59375 36.375 
Q 56.59375 19.140625 48.40625 8.859375 
Q 40.234375 -1.421875 26.421875 -1.421875 
Q 22.703125 -1.421875 18.890625 -0.6875 
Q 15.09375 0.046875 10.984375 1.515625 
z
M 30.609375 32.421875 
Q 37.25 32.421875 41.125 36.953125 
Q 45.015625 41.5 45.015625 49.421875 
Q 45.015625 57.28125 41.125 61.84375 
Q 37.25 66.40625 30.609375 66.40625 
Q 23.96875 66.40625 20.09375 61.84375 
Q 16.21875 57.28125 16.21875 49.421875 
Q 16.21875 41.5 20.09375 36.953125 
Q 23.96875 32.421875 30.609375 32.421875 
z
" id="DejaVuSans-39"/>
      </defs>
      <g transform="translate(31.096875 51.05532)scale(0.1 -0.1)">
       <use xlink:href="#DejaVuSans-30"/>
       <use x="63.623047" xlink:href="#DejaVuSans-2e"/>
       <use x="95.410156" xlink:href="#DejaVuSans-39"/>
      </g>
     </g>
    </g>
    <g id="text_18">
     <!-- accuracy -->
     <defs>
      <path d="M 34.28125 27.484375 
Q 23.390625 27.484375 19.1875 25 
Q 14.984375 22.515625 14.984375 16.5 
Q 14.984375 11.71875 18.140625 8.90625 
Q 21.296875 6.109375 26.703125 6.109375 
Q 34.1875 6.109375 38.703125 11.40625 
Q 43.21875 16.703125 43.21875 25.484375 
L 43.21875 27.484375 
z
M 52.203125 31.203125 
L 52.203125 0 
L 43.21875 0 
L 43.21875 8.296875 
Q 40.140625 3.328125 35.546875 0.953125 
Q 30.953125 -1.421875 24.3125 -1.421875 
Q 15.921875 -1.421875 10.953125 3.296875 
Q 6 8.015625 6 15.921875 
Q 6 25.140625 12.171875 29.828125 
Q 18.359375 34.515625 30.609375 34.515625 
L 43.21875 34.515625 
L 43.21875 35.40625 
Q 43.21875 41.609375 39.140625 45 
Q 35.0625 48.390625 27.6875 48.390625 
Q 23 48.390625 18.546875 47.265625 
Q 14.109375 46.140625 10.015625 43.890625 
L 10.015625 52.203125 
Q 14.9375 54.109375 19.578125 55.046875 
Q 24.21875 56 28.609375 56 
Q 40.484375 56 46.34375 49.84375 
Q 52.203125 43.703125 52.203125 31.203125 
z
" id="DejaVuSans-61"/>
      <path d="M 48.78125 52.59375 
L 48.78125 44.1875 
Q 44.96875 46.296875 41.140625 47.34375 
Q 37.3125 48.390625 33.40625 48.390625 
Q 24.65625 48.390625 19.8125 42.84375 
Q 14.984375 37.3125 14.984375 27.296875 
Q 14.984375 17.28125 19.8125 11.734375 
Q 24.65625 6.203125 33.40625 6.203125 
Q 37.3125 6.203125 41.140625 7.25 
Q 44.96875 8.296875 48.78125 10.40625 
L 48.78125 2.09375 
Q 45.015625 0.34375 40.984375 -0.53125 
Q 36.96875 -1.421875 32.421875 -1.421875 
Q 20.0625 -1.421875 12.78125 6.34375 
Q 5.515625 14.109375 5.515625 27.296875 
Q 5.515625 40.671875 12.859375 48.328125 
Q 20.21875 56 33.015625 56 
Q 37.15625 56 41.109375 55.140625 
Q 45.0625 54.296875 48.78125 52.59375 
z
" id="DejaVuSans-63"/>
      <path d="M 8.5 21.578125 
L 8.5 54.6875 
L 17.484375 54.6875 
L 17.484375 21.921875 
Q 17.484375 14.15625 20.5 10.265625 
Q 23.53125 6.390625 29.59375 6.390625 
Q 36.859375 6.390625 41.078125 11.03125 
Q 45.3125 15.671875 45.3125 23.6875 
L 45.3125 54.6875 
L 54.296875 54.6875 
L 54.296875 0 
L 45.3125 0 
L 45.3125 8.40625 
Q 42.046875 3.421875 37.71875 1 
Q 33.40625 -1.421875 27.6875 -1.421875 
Q 18.265625 -1.421875 13.375 4.4375 
Q 8.5 10.296875 8.5 21.578125 
z
M 31.109375 56 
z
" id="DejaVuSans-75"/>
      <path d="M 41.109375 46.296875 
Q 39.59375 47.171875 37.8125 47.578125 
Q 36.03125 48 33.890625 48 
Q 26.265625 48 22.1875 43.046875 
Q 18.109375 38.09375 18.109375 28.8125 
L 18.109375 0 
L 9.078125 0 
L 9.078125 54.6875 
L 18.109375 54.6875 
L 18.109375 46.1875 
Q 20.953125 51.171875 25.484375 53.578125 
Q 30.03125 56 36.53125 56 
Q 37.453125 56 38.578125 55.875 
Q 39.703125 55.765625 41.0625 55.515625 
z
" id="DejaVuSans-72"/>
      <path d="M 32.171875 -5.078125 
Q 28.375 -14.84375 24.75 -17.8125 
Q 21.140625 -20.796875 15.09375 -20.796875 
L 7.90625 -20.796875 
L 7.90625 -13.28125 
L 13.1875 -13.28125 
Q 16.890625 -13.28125 18.9375 -11.515625 
Q 21 -9.765625 23.484375 -3.21875 
L 25.09375 0.875 
L 2.984375 54.6875 
L 12.5 54.6875 
L 29.59375 11.921875 
L 46.6875 54.6875 
L 56.203125 54.6875 
z
" id="DejaVuSans-79"/>
     </defs>
     <g transform="translate(25.017187 165.839375)rotate(-90)scale(0.1 -0.1)">
      <use xlink:href="#DejaVuSans-61"/>
      <use x="61.279297" xlink:href="#DejaVuSans-63"/>
      <use x="116.259766" xlink:href="#DejaVuSans-63"/>
      <use x="171.240234" xlink:href="#DejaVuSans-75"/>
      <use x="234.619141" xlink:href="#DejaVuSans-72"/>
      <use x="275.732422" xlink:href="#DejaVuSans-61"/>
      <use x="337.011719" xlink:href="#DejaVuSans-63"/>
      <use x="391.992188" xlink:href="#DejaVuSans-79"/>
     </g>
    </g>
   </g>
   <g id="line2d_17">
    <path clip-path="url(#paace827145)" d="M 69.218182 240.031258 
L 69.457273 242.116364 
L 69.935457 242.116364 
L 70.174548 237.849174 
L 70.41364 237.849174 
L 70.652732 239.81305 
L 71.130915 239.81305 
L 71.370006 225.629494 
L 71.609098 237.849174 
L 71.84819 231.157444 
L 72.087281 220.125786 
L 72.326373 237.849174 
L 74.000014 237.849174 
L 74.239106 236.879358 
L 74.478198 225.096093 
L 74.717289 239.81305 
L 74.956381 239.81305 
L 75.195472 236.44294 
L 75.434564 237.849174 
L 75.673656 220.077298 
L 75.912747 219.37418 
L 76.151839 218.2104 
L 76.390931 237.849174 
L 76.630022 210.451875 
L 76.869114 237.267283 
L 77.108205 223.592879 
L 77.347297 235.303407 
L 77.586389 219.931823 
L 77.82548 223.64137 
L 78.064572 234.891234 
L 78.303664 226.74478 
L 78.542755 226.041666 
L 78.781847 221.289567 
L 79.020938 222.065418 
L 79.499122 210.645837 
L 79.738213 216.828414 
L 79.977305 190.303948 
L 80.216396 213.870476 
L 80.455488 191.734425 
L 80.69458 196.12284 
L 80.933671 211.348955 
L 81.172763 192.316317 
L 81.411855 205.31185 
L 81.650946 190.13423 
L 81.890038 192.486034 
L 82.129129 192.87396 
L 82.368221 179.175313 
L 82.607313 197.989742 
L 82.846404 193.649811 
L 83.085496 196.583507 
L 83.324588 164.409865 
L 83.563679 175.368783 
L 83.802771 178.132761 
L 84.041862 183.830429 
L 84.280954 180.654282 
L 84.520046 165.525151 
L 84.759137 167.343554 
L 84.998229 154.057075 
L 85.237321 159.585032 
L 85.476412 167.99818 
L 85.715504 166.737419 
L 85.954595 154.541984 
L 86.193687 157.01502 
L 86.432779 165.185717 
L 86.910962 136.915581 
L 87.150054 133.060559 
L 87.628237 130.902722 
L 87.867328 137.909648 
L 88.10642 133.56971 
L 88.345512 138.6855 
L 88.584603 125.423263 
L 88.823695 133.472741 
L 89.062787 122.562308 
L 89.301878 124.526179 
L 89.54097 123.89581 
L 90.019153 115.458398 
L 90.258245 119.822572 
L 90.497336 113.009626 
L 90.736428 115.894816 
L 90.97552 117.228317 
L 91.214611 113.688494 
L 91.453703 116.476715 
L 91.692794 115.04623 
L 92.170978 109.736489 
L 92.410069 109.130354 
L 92.649161 98.53512 
L 92.888253 99.141255 
L 93.127344 101.032392 
L 93.366436 108.669688 
L 93.605527 110.560839 
L 93.844619 108.330254 
L 94.083711 97.662286 
L 94.322802 106.317884 
L 94.561894 98.680588 
L 94.800986 99.480689 
L 95.040077 98.244171 
L 95.279169 94.655849 
L 95.51826 93.44358 
L 95.757352 87.406486 
L 95.996444 88.546006 
L 96.235535 87.382237 
L 96.474627 90.02499 
L 96.713718 91.213009 
L 96.95281 86.945819 
L 97.191902 86.824587 
L 97.430993 85.272884 
L 97.670085 81.660327 
L 97.909177 93.540563 
L 98.148268 92.473762 
L 98.38736 84.036366 
L 98.626451 89.370357 
L 98.865543 79.502475 
L 99.104635 78.94484 
L 99.343726 81.054193 
L 99.582818 87.45497 
L 99.82191 86.218452 
L 100.061001 86.533651 
L 100.300093 84.9092 
L 100.539184 80.035876 
L 100.778276 79.720691 
L 101.017368 77.975022 
L 101.256459 78.92059 
L 101.495551 82.484663 
L 101.734643 78.193223 
L 101.973734 77.077938 
L 102.212826 83.454481 
L 102.451917 78.629641 
L 102.930101 74.604916 
L 103.169192 74.895851 
L 103.408284 76.011137 
L 103.647376 80.64201 
L 104.125559 69.464891 
L 104.36465 71.428762 
L 104.603742 69.537625 
L 104.842834 69.731592 
L 105.081925 68.349591 
L 105.321017 71.186311 
L 105.560109 71.040829 
L 105.7992 72.738014 
L 106.038292 70.895362 
L 106.277383 71.453012 
L 106.516475 69.198191 
L 106.755567 70.458944 
L 106.994658 63.718732 
L 107.472842 67.86469 
L 108.190116 65.100718 
L 108.429208 61.58513 
L 108.6683 59.815211 
L 108.907391 60.978996 
L 109.146483 60.057677 
L 109.385575 64.615802 
L 109.624666 60.566828 
L 109.863758 58.699926 
L 110.102849 60.760794 
L 110.341941 59.86371 
L 110.581033 61.682113 
L 110.820124 57.899825 
L 111.298308 58.408991 
L 111.537399 64.494584 
L 112.015582 57.827091 
L 112.254674 57.560391 
L 112.493766 55.59652 
L 112.732857 54.893403 
L 113.21104 57.34219 
L 113.689224 55.354069 
L 114.167407 57.148223 
L 114.406499 57.439173 
L 114.64559 56.251139 
L 114.884682 56.008688 
L 115.123773 53.31745 
L 115.362865 54.117551 
L 115.601957 56.372372 
L 115.841048 54.820669 
L 116.08014 54.456985 
L 116.319232 54.796419 
L 116.558323 53.8751 
L 116.797415 56.711806 
L 117.036506 53.3417 
L 117.51469 54.699436 
L 117.753781 53.729618 
L 117.992873 54.650952 
L 118.231965 53.244717 
L 118.471056 54.675187 
L 118.710148 53.947834 
L 118.949239 52.7598 
L 119.188331 53.002266 
L 119.427423 53.656885 
L 119.666514 55.32982 
L 119.905606 55.814722 
L 120.144698 52.008198 
L 120.383789 54.77217 
L 120.622881 52.590083 
L 120.861972 52.4931 
L 121.340156 51.111114 
L 121.579247 51.644515 
L 121.818339 53.05075 
L 122.296522 51.814232 
L 122.535614 52.177916 
L 122.774705 53.559901 
L 123.013797 50.989896 
L 123.252889 50.456496 
L 123.49198 52.687067 
L 123.731072 52.638582 
L 123.970164 51.596031 
L 124.209255 52.129431 
L 124.687438 51.377815 
L 124.92653 53.002266 
L 125.165622 51.693014 
L 125.404713 52.226414 
L 125.643805 50.77168 
L 125.882897 50.844414 
L 126.121988 53.656885 
L 126.600171 51.086879 
L 127.078355 50.698947 
L 127.556538 51.693014 
L 128.034721 52.250649 
L 128.273813 51.159613 
L 128.512904 52.299148 
L 128.751996 52.080932 
L 128.991088 51.523297 
L 129.230179 50.383762 
L 129.469271 52.953767 
L 129.708362 50.480745 
L 129.947454 51.111114 
L 130.186546 50.335263 
L 130.425637 50.359512 
L 130.903821 50.892913 
L 131.142912 50.286779 
L 131.621095 50.698947 
L 131.860187 50.020078 
L 132.099279 50.965647 
L 132.33837 50.214045 
L 132.577462 49.850361 
L 132.816554 50.068563 
L 133.055645 49.923095 
L 133.533828 50.917162 
L 133.77292 50.868664 
L 134.012012 51.280831 
L 134.251103 50.432246 
L 134.490195 50.383762 
L 134.729287 50.189795 
L 134.968378 51.402064 
L 135.20747 49.704879 
L 135.446561 51.426314 
L 135.685653 50.262529 
L 135.924745 50.092812 
L 136.163836 50.23828 
L 136.64202 51.35358 
L 136.881111 49.801862 
L 137.359294 52.202165 
L 137.598386 50.601963 
L 137.837478 49.826112 
L 138.076569 51.693014 
L 138.554753 49.801862 
L 138.793844 50.432246 
L 139.032936 50.214045 
L 139.272027 51.256596 
L 139.511119 51.038381 
L 139.750211 51.620266 
L 139.989302 50.820179 
L 140.228394 51.014131 
L 140.467486 49.947345 
L 140.706577 50.650462 
L 140.945669 50.77168 
L 141.18476 50.359512 
L 141.423852 50.650462 
L 141.662944 50.020078 
L 141.902035 50.747445 
L 142.141127 49.632145 
L 142.380219 52.250649 
L 142.858402 50.286779 
L 143.097493 49.874611 
L 143.336585 49.777627 
L 143.575677 49.171493 
L 143.814768 49.874611 
L 144.05386 49.219977 
L 144.292952 49.704879 
L 144.532043 49.60791 
L 144.771135 49.632145 
L 145.010226 50.165546 
L 145.966593 49.583661 
L 146.205684 49.680644 
L 146.444776 49.244227 
L 146.683868 50.068563 
L 147.162051 50.311028 
L 147.401143 49.680644 
L 147.640234 49.947345 
L 148.118417 49.098745 
L 148.596601 49.753378 
L 148.835692 48.78356 
L 149.074784 48.298658 
L 149.313876 48.541109 
L 149.552967 49.098745 
L 149.792059 49.098745 
L 150.270242 47.910726 
L 150.509334 48.541109 
L 150.748425 48.51686 
L 151.226609 47.450059 
L 151.4657 48.78356 
L 151.704792 48.589594 
L 151.943883 49.60791 
L 152.182975 49.753378 
L 152.422067 47.692524 
L 152.661158 48.128941 
L 152.90025 47.789493 
L 153.139342 48.444126 
L 153.378433 49.923095 
L 153.617525 49.001776 
L 153.856616 49.413944 
L 154.095708 47.910726 
L 154.3348 49.098745 
L 154.573891 47.837992 
L 154.812983 48.710826 
L 155.052075 49.07451 
L 155.291166 49.801862 
L 155.530258 49.001776 
L 155.769349 49.244227 
L 156.008441 48.638093 
L 156.247533 49.147244 
L 156.486624 48.468376 
L 156.725716 48.25016 
L 156.964808 48.759311 
L 157.203899 48.080443 
L 157.442991 48.977527 
L 157.682082 48.856294 
L 157.921174 48.22591 
L 158.160266 48.662328 
L 158.399357 48.419877 
L 158.638449 48.735076 
L 158.877541 48.662328 
L 159.355724 48.710826 
L 159.594815 48.201675 
L 160.072999 48.710826 
L 160.31209 48.153176 
L 160.551182 48.274409 
L 160.790274 49.462428 
L 161.029365 50.044328 
L 161.268457 48.444126 
L 161.507548 48.080443 
L 161.74664 47.474308 
L 161.985732 49.486678 
L 162.224823 49.704879 
L 162.463915 49.244227 
L 162.703006 47.959224 
L 163.18119 47.789493 
L 163.420281 47.886476 
L 163.659373 48.904793 
L 163.898465 47.547042 
L 164.137556 47.716759 
L 164.376648 48.977527 
L 164.615739 48.953277 
L 165.093923 47.837992 
L 165.572106 47.789493 
L 165.811198 47.328841 
L 166.050289 47.644025 
L 166.289381 47.522807 
L 166.528472 47.595541 
L 166.767564 49.001776 
L 167.006656 48.347143 
L 167.245747 50.23828 
L 167.484839 48.759311 
L 167.723931 49.268462 
L 168.202114 49.147244 
L 168.680297 47.377325 
L 168.919389 47.619776 
L 169.397572 47.280342 
L 169.636664 48.056193 
L 169.875755 47.134874 
L 170.114847 47.668275 
L 170.353938 47.692524 
L 170.59303 47.910726 
L 170.832122 48.929028 
L 171.071213 48.031958 
L 171.310305 47.765258 
L 171.549397 48.007709 
L 171.788488 48.589594 
L 172.02758 47.934975 
L 172.266671 48.444126 
L 172.505763 49.850361 
L 172.744855 47.862241 
L 172.983946 48.177426 
L 173.46213 47.910726 
L 173.701221 47.134874 
L 174.179404 48.589594 
L 174.418496 47.353076 
L 174.657588 47.595541 
L 174.896679 47.425824 
L 175.135771 48.177426 
L 175.374863 47.959224 
L 175.613954 48.371392 
L 176.331229 47.328841 
L 176.570321 47.159124 
L 176.809412 47.328841 
L 177.048504 47.862241 
L 177.287596 47.789493 
L 177.526687 47.934975 
L 177.765779 47.910726 
L 178.00487 47.474308 
L 178.243962 48.589594 
L 178.722145 47.619776 
L 178.961237 47.522807 
L 179.200329 47.765258 
L 179.917603 46.916658 
L 180.156695 47.159124 
L 180.634878 47.08639 
L 180.87397 47.886476 
L 181.113061 47.207608 
L 181.352153 47.886476 
L 182.30852 46.407507 
L 182.547611 46.213555 
L 182.786703 46.456006 
L 183.264886 46.649972 
L 183.503978 46.213555 
L 183.743069 47.571291 
L 183.982161 46.213555 
L 184.221253 46.310524 
L 184.460344 46.79544 
L 184.699436 47.983459 
L 184.938527 46.698457 
L 185.416711 47.765258 
L 185.655802 47.353076 
L 185.894894 48.007709 
L 186.133986 47.813742 
L 186.373077 47.813742 
L 186.612169 46.625723 
L 186.85126 47.037891 
L 187.090352 49.026011 
L 187.568535 46.989406 
L 187.807627 46.940908 
L 188.046719 46.601474 
L 188.28581 46.965157 
L 188.524902 47.959224 
L 189.003085 46.746941 
L 189.481268 47.231857 
L 189.72036 47.789493 
L 189.959452 46.843924 
L 190.198543 46.431757 
L 190.437635 48.080443 
L 190.676726 46.262039 
L 190.915818 46.601474 
L 191.15491 46.601474 
L 191.394001 46.456006 
L 191.872185 47.013641 
L 192.111276 46.50449 
L 192.350368 46.674207 
L 192.589459 47.256107 
L 192.828551 46.480255 
L 193.306734 47.231857 
L 193.545826 46.577224 
L 193.784918 47.134874 
L 194.024009 47.110625 
L 194.263101 46.601474 
L 194.502192 47.716759 
L 194.741284 47.813742 
L 194.980376 46.746941 
L 195.458559 46.625723 
L 195.697651 47.159124 
L 195.936742 47.134874 
L 196.175834 46.771191 
L 196.414925 47.765258 
L 196.654017 47.644025 
L 197.1322 46.407507 
L 197.610383 47.425824 
L 197.849475 46.79544 
L 198.088567 46.989406 
L 198.327658 47.789493 
L 198.805842 47.474308 
L 199.044933 48.031958 
L 199.284025 47.159124 
L 199.523116 47.06214 
L 199.762208 47.522807 
L 200.0013 47.08639 
L 200.240391 47.644025 
L 200.479483 47.910726 
L 200.718575 47.862241 
L 200.957666 47.110625 
L 201.196758 47.353076 
L 201.435849 46.940908 
L 201.674941 47.280342 
L 201.914033 48.056193 
L 202.153124 46.843924 
L 202.392216 47.231857 
L 202.631308 46.771191 
L 202.870399 46.771191 
L 203.109491 46.552989 
L 203.348582 48.977527 
L 203.587674 47.813742 
L 203.826766 47.668275 
L 204.065857 47.256107 
L 204.304949 47.401574 
L 204.544041 46.674207 
L 204.783132 46.892423 
L 205.261315 46.771191 
L 205.500407 47.450059 
L 205.739499 46.916658 
L 205.97859 46.916658 
L 206.217682 47.401574 
L 206.456774 46.286289 
L 206.695865 46.552989 
L 206.934957 47.08639 
L 207.174048 46.23779 
L 207.41314 46.407507 
L 207.652232 47.547042 
L 207.891323 46.746941 
L 208.130415 47.813742 
L 208.608598 47.110625 
L 208.84769 46.940908 
L 209.086781 46.431757 
L 209.325873 47.037891 
L 209.564965 47.08639 
L 209.804056 46.456006 
L 210.043148 46.625723 
L 210.28224 46.286289 
L 210.521331 47.498558 
L 210.760423 46.334773 
L 211.238606 46.359023 
L 211.477698 46.674207 
L 211.716789 46.383272 
L 211.955881 45.801373 
L 212.673156 46.480255 
L 212.912247 47.547042 
L 213.151339 47.280342 
L 213.390431 46.23779 
L 213.629522 46.480255 
L 213.868614 45.97109 
L 214.107705 46.892423 
L 214.346797 48.541109 
L 214.585889 47.134874 
L 214.82498 46.722706 
L 215.064072 46.019589 
L 215.303164 46.843924 
L 215.542255 46.165056 
L 215.781347 46.092322 
L 216.020438 47.08639 
L 216.25953 47.401574 
L 216.498622 46.746941 
L 216.737713 47.134874 
L 216.976805 47.110625 
L 217.454988 46.552989 
L 217.69408 46.649972 
L 217.933171 47.231857 
L 218.172263 46.23779 
L 218.411355 47.183359 
L 218.650446 46.23779 
L 218.889538 46.480255 
L 219.12863 46.892423 
L 219.367721 46.50449 
L 219.606813 46.383272 
L 219.845904 46.771191 
L 220.084996 46.746941 
L 220.563179 46.189306 
L 220.802271 46.383272 
L 221.041363 46.940908 
L 221.280454 46.649972 
L 221.758637 46.892423 
L 221.997729 47.910726 
L 222.475912 46.213555 
L 222.715004 45.898356 
L 223.193187 47.280342 
L 223.432279 47.013641 
L 223.67137 46.50449 
L 224.149554 46.165056 
L 224.388645 46.286289 
L 224.627737 46.965157 
L 224.866829 46.189306 
L 225.10592 46.407507 
L 225.345012 47.474308 
L 225.584103 47.668275 
L 225.823195 46.407507 
L 226.062287 46.092322 
L 226.301378 46.625723 
L 226.54047 46.189306 
L 226.779562 46.431757 
L 227.018653 46.189306 
L 227.496836 45.97109 
L 227.735928 46.456006 
L 227.97502 46.456006 
L 228.214111 48.080443 
L 228.453203 47.013641 
L 228.931386 47.159124 
L 229.409569 46.50449 
L 229.648661 46.310524 
L 229.887753 46.552989 
L 230.126844 46.359023 
L 230.365936 46.649972 
L 230.844119 46.043838 
L 231.083211 46.698457 
L 231.322302 46.698457 
L 231.561394 46.577224 
L 231.800486 47.692524 
L 232.039577 46.383272 
L 232.278669 46.189306 
L 232.51776 46.746941 
L 232.756852 46.868174 
L 233.235035 46.431757 
L 233.474127 48.49261 
L 233.713219 46.50449 
L 233.95231 46.50449 
L 234.430493 46.843924 
L 234.669585 46.23779 
L 234.908677 46.50449 
L 235.147768 47.377325 
L 235.625952 45.728639 
L 235.865043 45.946855 
L 236.104135 45.995339 
L 237.060501 46.674207 
L 237.299593 46.310524 
L 237.538685 45.680155 
L 237.777776 46.649972 
L 238.016868 46.601474 
L 238.255959 46.310524 
L 238.495051 46.310524 
L 238.734143 47.013641 
L 238.973234 46.262039 
L 239.212326 47.522807 
L 239.451418 46.043838 
L 239.690509 45.825622 
L 239.929601 45.801373 
L 240.168692 46.552989 
L 240.407784 45.849872 
L 240.646876 45.849872 
L 240.885967 45.510437 
L 241.125059 45.510437 
L 241.364151 46.310524 
L 241.603242 46.383272 
L 241.842334 46.989406 
L 242.081425 45.704389 
L 242.320517 46.722706 
L 242.559609 45.801373 
L 243.276884 45.801373 
L 243.515975 45.389205 
L 243.994158 45.97109 
L 244.472342 45.122505 
L 244.711433 46.092322 
L 244.950525 45.801373 
L 245.189617 45.219488 
L 245.428708 45.777138 
L 245.6678 46.674207 
L 245.906891 45.97109 
L 246.145983 46.116572 
L 246.385075 46.625723 
L 246.624166 46.310524 
L 246.863258 47.013641 
L 247.102349 46.140807 
L 247.341441 46.52874 
L 247.580533 45.607421 
L 247.819624 46.019589 
L 248.058716 47.644025 
L 248.536899 45.995339 
L 249.015082 45.97109 
L 249.254174 45.922605 
L 249.493266 47.644025 
L 249.971449 45.680155 
L 250.449632 45.922605 
L 250.688724 46.819689 
L 250.927815 45.898356 
L 251.166907 45.97109 
L 251.405999 47.353076 
L 251.64509 45.316471 
L 251.884182 45.704389 
L 252.123274 45.510437 
L 252.362365 46.019589 
L 252.601457 45.922605 
L 252.840548 46.286289 
L 253.07964 45.558922 
L 253.318732 45.995339 
L 253.796915 45.413454 
L 254.036007 46.431757 
L 254.275098 46.407507 
L 254.51419 46.043838 
L 254.992373 46.23779 
L 255.231465 46.140807 
L 255.470556 47.110625 
L 255.709648 47.328841 
L 255.94874 46.140807 
L 256.426923 46.092322 
L 256.905106 46.50449 
L 257.144198 45.728639 
L 257.383289 47.08639 
L 257.622381 46.940908 
L 257.861473 45.97109 
L 258.100564 45.704389 
L 258.339656 46.50449 
L 258.578747 46.674207 
L 258.817839 45.607421 
L 259.296022 46.262039 
L 259.535114 46.456006 
L 259.774206 46.480255 
L 260.013297 47.231857 
L 260.252389 46.165056 
L 260.49148 46.310524 
L 260.730572 46.625723 
L 261.208755 46.674207 
L 261.447847 46.383272 
L 261.686939 46.480255 
L 261.92603 46.213555 
L 262.643305 46.456006 
L 262.882397 47.06214 
L 263.121488 46.068073 
L 263.36058 46.23779 
L 263.599671 45.898356 
L 263.838763 46.189306 
L 264.077855 45.97109 
L 264.316946 47.474308 
L 264.79513 46.50449 
L 265.034221 46.310524 
L 265.273313 46.431757 
L 265.512404 45.874107 
L 265.751496 46.552989 
L 265.990588 46.286289 
L 266.229679 46.431757 
L 266.468771 46.819689 
L 266.707863 45.946855 
L 266.946954 45.680155 
L 267.186046 46.892423 
L 267.425137 45.849872 
L 267.903321 46.334773 
L 268.381504 45.583171 
L 268.620596 46.989406 
L 268.859687 45.995339 
L 269.098779 47.159124 
L 269.33787 46.456006 
L 269.576962 46.722706 
L 269.816054 46.359023 
L 270.055145 45.655905 
L 270.294237 45.946855 
L 271.011512 46.019589 
L 271.250603 45.607421 
L 271.489695 46.625723 
L 271.728787 45.680155 
L 271.967878 46.116572 
L 272.20697 45.801373 
L 272.446062 46.189306 
L 272.685153 45.631656 
L 272.924245 45.364955 
L 273.163336 45.558922 
L 273.402428 45.364955 
L 273.64152 45.655905 
L 273.880611 47.08639 
L 274.358795 46.092322 
L 274.597886 46.116572 
L 274.836978 45.631656 
L 275.076069 46.043838 
L 275.315161 47.377325 
L 275.554253 46.359023 
L 276.032436 45.680155 
L 276.510619 45.510437 
L 276.749711 45.655905 
L 276.988802 46.50449 
L 277.227894 46.625723 
L 277.466986 46.286289 
L 277.706077 46.456006 
L 277.945169 46.819689 
L 278.184261 46.165056 
L 278.423352 45.849872 
L 278.662444 46.140807 
L 278.901535 46.771191 
L 279.140627 45.631656 
L 279.379719 46.189306 
L 279.61881 45.364955 
L 279.857902 45.486188 
L 280.096994 46.043838 
L 280.336085 46.068073 
L 280.575177 45.801373 
L 280.814268 46.431757 
L 281.05336 46.52874 
L 281.292452 45.946855 
L 281.770635 45.849872 
L 282.009726 46.334773 
L 282.248818 45.922605 
L 282.48791 45.922605 
L 282.727001 46.043838 
L 282.966093 46.819689 
L 283.444276 45.704389 
L 283.683368 46.116572 
L 283.922459 45.898356 
L 284.400643 46.310524 
L 284.878826 45.219488 
L 285.117918 45.655905 
L 285.357009 45.389205 
L 285.596101 46.140807 
L 285.835192 45.316471 
L 286.074284 45.777138 
L 286.552467 47.183359 
L 286.791559 45.874107 
L 287.030651 45.631656 
L 287.269742 45.874107 
L 287.508834 45.898356 
L 287.747925 45.631656 
L 287.987017 45.558922 
L 288.226109 45.801373 
L 288.4652 45.461939 
L 288.943384 45.728639 
L 289.182475 47.353076 
L 289.421567 46.310524 
L 289.660658 46.359023 
L 289.89975 45.97109 
L 290.617025 45.583171 
L 291.3343 46.359023 
L 291.812483 45.316471 
L 292.051575 45.413454 
L 292.76885 46.843924 
L 293.007941 45.995339 
L 293.247033 45.655905 
L 293.725216 46.431757 
L 294.203399 45.946855 
L 294.442491 47.425824 
L 294.681583 45.97109 
L 295.159766 46.383272 
L 295.398857 46.262039 
L 295.637949 45.728639 
L 295.877041 45.898356 
L 296.116132 46.965157 
L 296.594316 45.243737 
L 297.072499 45.437689 
L 297.31159 45.34072 
L 297.789774 46.092322 
L 298.028865 45.655905 
L 298.267957 45.752888 
L 298.507048 45.195238 
L 298.985232 46.116572 
L 299.224323 45.486188 
L 299.463415 45.389205 
L 299.702507 45.995339 
L 299.941598 45.704389 
L 300.18069 46.601474 
L 300.419781 45.704389 
L 300.658873 45.510437 
L 300.897965 45.558922 
L 301.137056 46.189306 
L 301.376148 45.437689 
L 302.093423 44.80732 
L 302.332514 45.97109 
L 302.571606 45.728639 
L 302.810698 46.286289 
L 303.049789 45.219488 
L 303.288881 45.825622 
L 303.527973 45.146754 
L 303.767064 45.098255 
L 304.006156 45.219488 
L 304.245247 45.098255 
L 304.484339 45.171003 
L 304.962522 45.510437 
L 305.201614 44.904303 
L 305.679797 45.364955 
L 305.918889 45.243737 
L 306.15798 44.928538 
L 306.397072 45.122505 
L 306.636164 46.068073 
L 306.875255 45.461939 
L 307.114347 45.461939 
L 307.353439 46.23779 
L 307.59253 45.583171 
L 307.831622 46.068073 
L 308.070713 45.825622 
L 308.309805 45.752888 
L 308.548897 45.098255 
L 308.787988 45.631656 
L 309.02708 46.940908 
L 309.505263 45.461939 
L 309.744355 45.364955 
L 310.222538 45.534672 
L 310.46163 47.134874 
L 310.700721 45.97109 
L 310.939813 45.413454 
L 311.417996 45.171003 
L 311.657088 45.995339 
L 311.896179 45.292222 
L 312.135271 45.413454 
L 312.374363 46.843924 
L 312.613454 44.855804 
L 313.091638 45.316471 
L 313.808912 45.995339 
L 314.048004 45.219488 
L 314.526187 45.243737 
L 314.765279 45.098255 
L 315.00437 45.946855 
L 315.243462 45.946855 
L 315.482554 45.437689 
L 315.721645 45.461939 
L 315.960737 46.23779 
L 316.199829 45.704389 
L 316.43892 46.480255 
L 316.678012 46.746941 
L 316.917103 45.413454 
L 317.156195 45.849872 
L 317.395287 45.461939 
L 317.87347 46.068073 
L 318.112562 45.437689 
L 318.351653 46.23779 
L 318.590745 46.334773 
L 318.829836 45.655905 
L 319.068928 45.631656 
L 319.30802 46.019589 
L 319.547111 46.140807 
L 319.786203 45.316471 
L 320.025295 45.389205 
L 320.503478 46.019589 
L 320.742569 45.680155 
L 320.981661 46.746941 
L 321.220753 45.558922 
L 321.459844 46.043838 
L 321.698936 46.189306 
L 321.938028 45.995339 
L 322.177119 46.23779 
L 322.416211 46.043838 
L 322.655302 46.043838 
L 323.133486 45.680155 
L 323.372577 45.946855 
L 323.850761 46.092322 
L 324.089852 46.043838 
L 324.328944 46.140807 
L 324.807127 45.292222 
L 325.046219 45.364955 
L 325.28531 46.916658 
L 325.763494 45.995339 
L 326.002585 46.092322 
L 326.241677 46.019589 
L 326.480768 45.316471 
L 326.71986 45.995339 
L 326.958952 45.583171 
L 327.198043 45.583171 
L 327.437135 46.456006 
L 327.676227 45.413454 
L 327.915318 45.146754 
L 328.15441 46.262039 
L 328.393501 45.389205 
L 328.632593 45.777138 
L 328.871685 45.704389 
L 329.349868 45.171003 
L 329.58896 46.383272 
L 329.828051 45.34072 
L 330.067143 46.698457 
L 330.306234 46.116572 
L 330.784418 45.607421 
L 331.023509 45.122505 
L 331.262601 45.049771 
L 331.501692 45.704389 
L 331.979876 45.631656 
L 332.218967 45.413454 
L 332.458059 46.262039 
L 332.697151 45.219488 
L 332.936242 45.680155 
L 333.175334 45.607421 
L 333.414425 45.97109 
L 333.653517 45.195238 
L 334.1317 44.855804 
L 334.370792 45.171003 
L 334.609884 45.122505 
L 334.848975 46.310524 
L 335.327158 45.534672 
L 335.56625 46.068073 
L 335.805342 45.243737 
L 336.044433 45.267972 
L 336.283525 46.819689 
L 336.522617 45.825622 
L 336.761708 45.583171 
L 337.0008 45.049771 
L 337.239891 45.219488 
L 337.478983 45.122505 
L 337.718075 45.583171 
L 337.957166 45.801373 
L 338.196258 46.286289 
L 338.43535 46.480255 
L 338.674441 45.728639 
L 338.913533 46.140807 
L 339.152624 45.777138 
L 339.391716 45.704389 
L 339.630808 45.413454 
L 339.869899 46.068073 
L 340.108991 45.364955 
L 340.348083 45.801373 
L 340.587174 45.001272 
L 340.826266 44.904303 
L 341.065357 45.874107 
L 341.543541 45.364955 
L 342.021724 46.334773 
L 342.260816 45.437689 
L 342.499907 45.801373 
L 342.738999 45.704389 
L 342.97809 45.898356 
L 343.217182 45.486188 
L 343.456274 45.364955 
L 343.695365 45.486188 
L 343.934457 46.043838 
L 344.173549 45.922605 
L 344.41264 45.267972 
L 344.651732 45.752888 
L 344.890823 45.607421 
L 345.369007 45.946855 
L 345.84719 44.80732 
L 346.086282 45.122505 
L 346.325373 44.855804 
L 346.564465 45.461939 
L 346.803556 44.758821 
L 347.520831 46.771191 
L 347.759923 45.461939 
L 347.999014 45.122505 
L 348.238106 45.631656 
L 348.477198 45.534672 
L 348.716289 45.025521 
L 348.955381 45.607421 
L 349.194473 45.146754 
L 349.433564 44.928538 
L 349.672656 44.977037 
L 349.911747 45.243737 
L 350.150839 46.892423 
L 350.389931 45.777138 
L 351.107206 45.728639 
L 351.346297 45.049771 
L 351.585389 45.122505 
L 352.302664 45.97109 
L 352.780847 44.928538 
L 353.019939 45.146754 
L 353.25903 45.777138 
L 353.498122 45.849872 
L 353.737213 46.262039 
L 354.215397 45.07402 
L 354.454488 45.874107 
L 354.69358 45.922605 
L 355.171763 45.607421 
L 355.410855 46.843924 
L 355.649946 45.292222 
L 355.889038 45.752888 
L 356.12813 45.874107 
L 356.367221 45.364955 
L 356.845405 45.195238 
L 357.084496 46.601474 
L 357.323588 45.098255 
L 357.562679 44.78307 
L 358.040863 44.952787 
L 358.279954 44.880054 
L 358.758138 46.043838 
L 358.997229 45.219488 
L 359.236321 45.292222 
L 359.475412 45.001272 
L 359.953596 45.437689 
L 360.431779 44.637603 
L 360.670871 45.607421 
L 360.909962 45.195238 
L 361.149054 45.922605 
L 361.388145 45.413454 
L 361.866329 45.243737 
L 362.10542 45.364955 
L 362.344512 44.855804 
L 362.822695 44.734586 
L 363.061787 44.661838 
L 363.300878 45.316471 
L 363.53997 45.34072 
L 363.779062 45.849872 
L 364.018153 44.904303 
L 364.257245 45.195238 
L 364.735428 44.492121 
L 364.97452 45.001272 
L 365.452703 44.686087 
L 365.930886 45.025521 
L 366.169978 44.686087 
L 366.409069 44.613353 
L 366.648161 45.07402 
L 366.887253 44.54062 
L 367.126344 44.710337 
L 367.365436 44.734586 
L 367.604528 45.801373 
L 367.843619 45.07402 
L 368.321802 45.849872 
L 368.560894 45.292222 
L 368.799986 45.704389 
L 369.278169 45.219488 
L 369.517261 44.758821 
L 369.995444 46.334773 
L 370.234535 46.116572 
L 370.473627 45.122505 
L 370.712719 45.001272 
L 370.95181 45.219488 
L 371.190902 45.122505 
L 371.429994 46.577224 
L 371.908177 45.049771 
L 372.147268 44.80732 
L 372.38636 44.758821 
L 372.625452 45.389205 
L 372.864543 44.443636 
L 373.103635 45.171003 
L 373.342727 46.359023 
L 373.581818 44.613353 
L 373.581818 44.613353 
" style="fill:none;stroke:#1f77b4;stroke-linecap:square;"/>
   </g>
   <g id="line2d_18">
    <path clip-path="url(#paace827145)" d="M 69.218182 240.031258 
L 69.395571 242.116364 
L 69.750351 242.116364 
L 69.92774 237.849174 
L 70.10513 237.849174 
L 70.28252 239.81305 
L 70.637299 239.81305 
L 70.814688 224.611185 
L 70.992078 237.849174 
L 71.169468 237.849174 
L 71.346857 221.847209 
L 71.524247 237.849174 
L 72.943364 237.849174 
L 73.120754 221.895701 
L 73.298143 239.81305 
L 73.475533 239.81305 
L 73.652922 237.727946 
L 73.830312 237.849174 
L 74.007702 219.37418 
L 74.185091 217.725494 
L 74.362481 220.174277 
L 74.539871 237.849174 
L 74.71726 223.229199 
L 74.89465 237.703701 
L 75.072039 228.999604 
L 75.249429 236.782376 
L 75.426819 221.944193 
L 75.781598 236.394449 
L 75.958988 228.296486 
L 76.136377 227.617614 
L 76.313767 222.356364 
L 76.491156 223.398916 
L 76.845936 213.143112 
L 77.023325 216.973885 
L 77.200715 189.576588 
L 77.378105 215.494916 
L 77.555494 195.298497 
L 77.732884 202.741834 
L 77.910273 216.440488 
L 78.087663 194.959063 
L 78.265053 204.899678 
L 78.442442 187.636952 
L 78.797222 197.820018 
L 78.974611 177.526627 
L 79.152001 202.6691 
L 79.32939 195.540955 
L 79.50678 203.226743 
L 79.68417 168.143655 
L 80.038949 182.399951 
L 80.216339 187.394501 
L 80.393728 182.763628 
L 80.571118 172.483578 
L 80.748507 172.289619 
L 80.925897 160.02145 
L 81.280676 174.956615 
L 81.458066 173.52613 
L 81.635456 159.027382 
L 81.812845 162.858155 
L 81.990235 169.574132 
L 82.345014 141.061538 
L 82.522404 143.631558 
L 82.877183 134.12736 
L 83.054573 143.267874 
L 83.231962 141.182771 
L 83.409352 142.734474 
L 83.586741 136.794348 
L 83.764131 138.297567 
L 83.941521 126.223364 
L 84.11891 127.290165 
L 84.2963 131.266405 
L 84.651079 118.270869 
L 84.828469 124.235244 
L 85.005858 119.143703 
L 85.183248 121.61674 
L 85.360638 122.004658 
L 85.538027 120.307488 
L 85.715417 122.756275 
L 86.070196 117.88295 
L 86.247586 115.555382 
L 86.424975 115.652365 
L 86.602365 103.650896 
L 86.957144 106.220915 
L 87.134534 114.076413 
L 87.311924 115.385665 
L 87.489313 114.537079 
L 87.666703 104.305529 
L 87.844092 112.694427 
L 88.021482 104.81468 
L 88.198872 105.275332 
L 88.731041 99.068521 
L 88.90843 90.340175 
L 89.08582 91.552443 
L 89.263209 90.752343 
L 89.617989 94.316415 
L 89.795378 90.970558 
L 89.972768 92.449527 
L 90.150157 90.703858 
L 90.327547 87.382237 
L 90.504937 98.801821 
L 90.682326 97.44407 
L 90.859716 86.582136 
L 91.037106 92.522261 
L 91.214495 80.908711 
L 91.391885 80.278327 
L 91.569274 82.848346 
L 91.746664 90.364424 
L 91.924054 88.424788 
L 92.101443 88.303556 
L 92.278833 88.594505 
L 92.456223 82.217963 
L 92.633612 82.678629 
L 92.988391 83.090797 
L 93.165781 85.709301 
L 93.343171 81.660327 
L 93.52056 81.805795 
L 93.69795 86.145718 
L 94.052729 78.072005 
L 94.230119 76.302086 
L 94.584898 79.187291 
L 94.762288 84.012131 
L 95.117067 77.393137 
L 95.294457 77.126437 
L 95.649236 74.338216 
L 95.826625 74.435199 
L 96.004015 74.023017 
L 96.358794 78.65389 
L 96.536184 77.441621 
L 96.713574 79.21154 
L 96.890963 76.641521 
L 97.068353 77.247655 
L 97.245742 72.810748 
L 97.600522 74.3867 
L 98.48747 68.39809 
L 98.664859 68.931491 
L 98.842249 67.670723 
L 99.019639 70.192244 
L 99.374418 64.300617 
L 99.551808 66.434205 
L 99.729197 65.803836 
L 99.906587 67.549505 
L 100.083976 63.791466 
L 100.438756 62.724665 
L 100.616145 70.071026 
L 100.970925 62.288248 
L 101.148314 62.482214 
L 101.503093 57.487657 
L 101.680483 60.542578 
L 101.857873 59.766727 
L 102.035262 60.518329 
L 102.212652 60.348612 
L 102.390042 62.312497 
L 102.567431 61.948814 
L 102.744821 58.724175 
L 102.92221 60.324377 
L 103.0996 59.766727 
L 103.27699 57.536156 
L 103.631769 62.482214 
L 103.809159 60.591063 
L 103.986548 60.178895 
L 104.163938 61.245696 
L 104.341327 61.391164 
L 104.518717 63.258066 
L 104.873496 57.31794 
L 105.050886 55.111604 
L 105.228276 55.03887 
L 105.405665 58.990876 
L 105.583055 56.032938 
L 105.760444 55.523786 
L 105.937834 55.741988 
L 106.115224 53.972069 
L 106.292613 53.559901 
L 106.824782 60.421346 
L 107.002172 54.941887 
L 107.179561 56.930022 
L 107.356951 54.481235 
L 107.534341 54.990386 
L 107.71173 52.056683 
L 107.88912 52.250649 
L 108.06651 52.953767 
L 108.421289 55.232837 
L 108.598678 52.614333 
L 108.776068 53.365935 
L 108.953458 54.869153 
L 109.130847 51.668764 
L 109.308237 51.886966 
L 109.485627 54.287268 
L 109.663016 54.77217 
L 109.840406 52.347633 
L 110.017795 54.335753 
L 110.195185 53.293201 
L 110.372575 53.075 
L 110.549964 56.008688 
L 110.727354 52.468865 
L 110.904744 53.850851 
L 111.082133 52.008198 
L 111.259523 51.377815 
L 111.436912 54.723686 
L 111.791692 51.571781 
L 111.969081 51.789997 
L 112.146471 51.426314 
L 112.323861 53.244717 
L 112.50125 52.711316 
L 112.67864 53.8751 
L 112.856029 53.923585 
L 113.033419 52.541599 
L 113.210809 53.850851 
L 113.388198 53.850851 
L 113.565588 53.075 
L 113.742978 51.280831 
L 113.920367 52.590083 
L 114.097757 51.305081 
L 114.275146 52.78405 
L 114.452536 51.596031 
L 114.629926 51.717249 
L 114.807315 51.32933 
L 114.984705 51.765748 
L 115.162095 51.426314 
L 115.339484 50.650462 
L 115.516874 50.965647 
L 115.694263 50.79593 
L 115.871653 51.741498 
L 116.226432 50.480745 
L 116.403822 50.917162 
L 116.581212 50.747445 
L 116.758601 51.111114 
L 116.935991 52.396131 
L 117.11338 51.620266 
L 117.29077 52.274899 
L 117.645549 51.135364 
L 117.822939 51.208098 
L 118.000329 51.886966 
L 118.177718 51.135364 
L 118.355108 52.080932 
L 118.709887 50.868664 
L 118.887277 50.50498 
L 119.242056 52.177916 
L 119.419446 50.601963 
L 119.596835 52.444616 
L 119.774225 52.638582 
L 120.129004 50.407997 
L 120.306394 52.565848 
L 120.483783 52.177916 
L 120.661173 50.79593 
L 120.838563 51.305081 
L 121.015952 50.456496 
L 121.548121 52.444616 
L 121.725511 51.789997 
L 121.9029 51.838481 
L 122.08029 50.335263 
L 122.435069 51.280831 
L 122.612459 50.601963 
L 122.789848 50.941397 
L 122.967238 50.941397 
L 123.144628 51.741498 
L 123.322017 50.941397 
L 123.499407 53.31745 
L 123.854186 50.577714 
L 124.208965 50.262529 
L 124.386355 49.680644 
L 124.563745 50.480745 
L 124.741134 49.729129 
L 124.918524 50.141297 
L 125.095914 50.165546 
L 125.273303 50.311028 
L 125.450693 51.232347 
L 125.628082 50.432246 
L 125.805472 51.159613 
L 125.982862 51.232347 
L 126.337641 50.044328 
L 126.51503 49.971579 
L 126.86981 50.965647 
L 127.047199 51.135364 
L 127.224589 50.359512 
L 127.401979 50.529229 
L 127.756758 49.462428 
L 128.111537 50.674697 
L 128.288927 49.704879 
L 128.643706 48.977527 
L 128.821096 50.165546 
L 128.998485 49.510927 
L 129.175875 49.510927 
L 129.353264 48.977527 
L 129.530654 49.704879 
L 129.885433 48.419877 
L 130.062823 48.298658 
L 130.240213 49.535162 
L 130.417602 49.34121 
L 130.594992 50.335263 
L 130.772381 50.286779 
L 130.949771 48.638093 
L 131.127161 48.347143 
L 131.30455 48.51686 
L 131.65933 50.50498 
L 131.836719 49.535162 
L 132.014109 49.947345 
L 132.191498 48.419877 
L 132.368888 50.044328 
L 132.546278 48.444126 
L 132.723667 49.292711 
L 132.901057 49.559412 
L 133.078447 50.214045 
L 133.255836 49.510927 
L 133.433226 50.068563 
L 133.610615 49.316961 
L 133.788005 49.559412 
L 133.965395 48.856294 
L 134.142784 48.929028 
L 134.320174 49.219977 
L 134.497564 48.444126 
L 134.674953 49.462428 
L 134.852343 49.704879 
L 135.029732 48.80781 
L 135.207122 49.656395 
L 135.384512 49.462428 
L 135.561901 49.826112 
L 135.916681 49.413944 
L 136.09407 49.777627 
L 136.448849 48.78356 
L 136.626239 49.171493 
L 136.803629 48.929028 
L 137.335798 50.989896 
L 137.513187 49.05026 
L 137.690577 48.613843 
L 137.867966 47.741008 
L 138.045356 50.456496 
L 138.400135 49.413944 
L 138.577525 48.274409 
L 138.754915 48.031958 
L 139.109694 48.735076 
L 139.287083 50.044328 
L 139.641863 47.741008 
L 139.996642 50.383762 
L 140.351421 48.638093 
L 140.528811 48.080443 
L 140.88359 48.541109 
L 141.06098 48.49261 
L 141.415759 48.153176 
L 141.593149 49.826112 
L 141.770538 48.856294 
L 141.947928 50.456496 
L 142.125317 49.413944 
L 142.302707 50.092812 
L 142.480097 49.510927 
L 142.657486 49.60791 
L 143.012266 47.765258 
L 143.189655 48.22591 
L 143.367045 48.128941 
L 143.544434 48.25016 
L 143.721824 48.589594 
L 143.899214 47.401574 
L 144.076603 47.571291 
L 144.431383 48.322893 
L 144.608772 49.898846 
L 144.786162 48.541109 
L 144.963551 48.104692 
L 145.318331 49.001776 
L 145.49572 48.274409 
L 145.67311 48.78356 
L 145.8505 50.674697 
L 146.027889 48.25016 
L 146.205279 48.565359 
L 146.382668 48.541109 
L 146.560058 48.22591 
L 146.737448 47.474308 
L 147.092227 48.977527 
L 147.269617 47.668275 
L 147.447006 48.22591 
L 147.624396 48.031958 
L 147.801785 49.05026 
L 147.979175 48.613843 
L 148.156565 48.832059 
L 148.333954 48.710826 
L 148.511344 48.395642 
L 148.688734 47.644025 
L 148.866123 48.007709 
L 149.043513 47.595541 
L 149.220902 48.686577 
L 149.398292 48.080443 
L 149.575682 48.177426 
L 149.753071 49.05026 
L 149.930461 47.716759 
L 150.107851 48.468376 
L 150.46263 47.959224 
L 150.817409 48.395642 
L 150.994799 48.153176 
L 151.172188 48.104692 
L 151.349578 47.425824 
L 151.526968 47.789493 
L 151.704357 47.595541 
L 151.881747 48.25016 
L 152.059136 48.322893 
L 152.236526 47.498558 
L 152.413916 48.541109 
L 152.591305 47.910726 
L 152.768695 47.741008 
L 152.946085 46.722706 
L 153.123474 47.304591 
L 153.300864 46.965157 
L 153.478253 47.231857 
L 153.655643 46.625723 
L 153.833033 46.843924 
L 154.010422 46.79544 
L 154.187812 47.692524 
L 154.365202 46.79544 
L 154.719981 47.498558 
L 154.89737 49.001776 
L 155.07476 47.474308 
L 155.25215 47.450059 
L 155.429539 47.765258 
L 155.606929 47.619776 
L 155.784319 48.371392 
L 155.961708 48.104692 
L 156.139098 48.080443 
L 156.316487 47.013641 
L 156.493877 46.989406 
L 156.671267 49.60791 
L 157.026046 47.231857 
L 157.203436 47.450059 
L 157.380825 46.940908 
L 157.735604 48.468376 
L 157.912994 47.813742 
L 158.267773 48.128941 
L 158.445163 47.716759 
L 158.622553 48.007709 
L 158.977332 47.425824 
L 159.154721 48.177426 
L 159.332111 46.771191 
L 159.509501 47.765258 
L 159.68689 47.231857 
L 160.04167 47.425824 
L 160.219059 47.741008 
L 160.396449 47.037891 
L 160.573838 47.183359 
L 160.751228 48.371392 
L 160.928618 47.159124 
L 161.106007 47.813742 
L 161.460787 46.771191 
L 162.347735 48.104692 
L 162.702514 47.256107 
L 162.879904 47.134874 
L 163.057293 47.280342 
L 163.234683 47.644025 
L 163.412072 47.134874 
L 163.589462 48.856294 
L 163.766852 48.371392 
L 164.121631 47.110625 
L 164.47641 48.007709 
L 164.6538 47.256107 
L 165.008579 48.49261 
L 165.185969 48.153176 
L 165.363358 47.547042 
L 165.540748 48.735076 
L 165.895527 47.377325 
L 166.072917 48.153176 
L 166.250306 48.128941 
L 166.427696 47.959224 
L 166.782475 48.274409 
L 166.959865 48.056193 
L 167.314644 47.959224 
L 167.669423 48.662328 
L 167.846813 47.692524 
L 168.024203 48.080443 
L 168.378982 47.619776 
L 168.556371 47.837992 
L 168.733761 50.674697 
L 168.911151 47.934975 
L 169.08854 48.080443 
L 169.44332 47.668275 
L 169.620709 46.892423 
L 169.798099 47.644025 
L 169.975488 47.401574 
L 170.152878 47.353076 
L 170.330268 47.498558 
L 170.685047 48.056193 
L 170.862437 47.910726 
L 171.217216 47.280342 
L 171.394605 47.741008 
L 171.571995 47.037891 
L 171.749385 47.256107 
L 171.926774 48.007709 
L 172.104164 47.741008 
L 172.281554 48.080443 
L 172.458943 47.401574 
L 172.636333 48.031958 
L 172.813722 47.353076 
L 172.991112 47.280342 
L 173.168502 47.328841 
L 173.345891 47.498558 
L 173.700671 47.037891 
L 173.87806 46.843924 
L 174.05545 47.862241 
L 174.410229 46.50449 
L 174.765008 47.474308 
L 175.119788 46.383272 
L 175.297177 46.431757 
L 175.474567 46.940908 
L 175.651956 46.310524 
L 175.829346 47.959224 
L 176.538905 46.383272 
L 176.893684 48.371392 
L 177.071073 47.401574 
L 177.248463 47.256107 
L 177.425853 46.52874 
L 177.603242 47.425824 
L 177.780632 46.649972 
L 177.958022 46.552989 
L 178.312801 47.789493 
L 178.49019 47.450059 
L 178.66758 47.619776 
L 178.84497 47.231857 
L 179.022359 47.256107 
L 179.377139 46.601474 
L 179.554528 46.868174 
L 179.731918 46.286289 
L 179.909307 47.789493 
L 180.264087 46.819689 
L 180.441476 47.328841 
L 180.796256 46.989406 
L 181.328424 47.110625 
L 181.505814 46.746941 
L 181.683204 46.892423 
L 181.860593 47.498558 
L 182.037983 46.698457 
L 182.215373 47.425824 
L 182.392762 47.450059 
L 182.570152 48.565359 
L 182.747541 47.256107 
L 182.924931 47.110625 
L 183.4571 47.498558 
L 183.63449 47.498558 
L 183.989269 46.23779 
L 184.166658 46.165056 
L 184.344048 46.577224 
L 184.521438 47.644025 
L 184.698827 46.359023 
L 184.876217 46.310524 
L 185.230996 48.201675 
L 185.585775 46.407507 
L 185.763165 46.50449 
L 185.940555 46.286289 
L 186.117944 47.522807 
L 186.295334 46.552989 
L 186.650113 46.213555 
L 186.827503 47.304591 
L 187.004892 47.183359 
L 187.182282 48.710826 
L 187.537061 47.425824 
L 187.891841 47.474308 
L 188.06923 46.916658 
L 188.24662 46.771191 
L 188.424009 47.08639 
L 188.601399 46.601474 
L 188.778789 46.698457 
L 188.956178 47.644025 
L 189.133568 46.310524 
L 189.843126 48.104692 
L 190.020516 46.674207 
L 190.197906 46.334773 
L 190.375295 47.789493 
L 190.552685 47.595541 
L 190.730075 46.625723 
L 190.907464 47.08639 
L 191.084854 48.880543 
L 191.262243 46.916658 
L 191.617023 47.401574 
L 191.794412 47.013641 
L 191.971802 46.310524 
L 192.149192 46.649972 
L 192.326581 47.668275 
L 192.503971 46.116572 
L 192.68136 46.674207 
L 192.85875 46.092322 
L 193.03614 46.019589 
L 193.390919 46.868174 
L 193.568309 46.843924 
L 193.745698 46.698457 
L 193.923088 46.819689 
L 194.100477 46.068073 
L 194.455257 47.377325 
L 194.810036 46.334773 
L 194.987426 47.571291 
L 195.164815 46.625723 
L 195.342205 47.474308 
L 195.519594 46.601474 
L 195.696984 46.552989 
L 196.051763 47.06214 
L 196.229153 46.262039 
L 196.406543 46.431757 
L 196.583932 46.286289 
L 196.761322 46.52874 
L 196.938711 46.407507 
L 197.293491 47.401574 
L 197.47088 46.140807 
L 197.64827 47.280342 
L 197.82566 46.407507 
L 198.003049 46.334773 
L 198.180439 45.97109 
L 198.357828 45.922605 
L 198.535218 45.704389 
L 198.889997 46.092322 
L 199.067387 45.825622 
L 199.244777 45.922605 
L 199.422166 46.577224 
L 199.599556 45.728639 
L 199.776945 45.849872 
L 199.954335 46.213555 
L 200.131725 47.741008 
L 200.309114 46.286289 
L 200.486504 46.310524 
L 200.663893 46.50449 
L 200.841283 46.23779 
L 201.018673 47.207608 
L 201.550842 46.043838 
L 201.728231 46.23779 
L 201.905621 48.22591 
L 202.2604 46.310524 
L 202.43779 46.577224 
L 202.615179 46.407507 
L 202.792569 46.407507 
L 202.969959 48.056193 
L 203.147348 46.577224 
L 203.324738 46.552989 
L 203.502127 46.843924 
L 203.679517 46.189306 
L 203.856907 46.674207 
L 204.034296 46.213555 
L 204.211686 46.213555 
L 204.389076 47.159124 
L 204.566465 45.486188 
L 204.743855 46.625723 
L 204.921244 46.043838 
L 205.098634 46.213555 
L 205.276024 46.649972 
L 205.630803 46.262039 
L 205.985582 46.649972 
L 206.162972 46.189306 
L 206.340361 46.722706 
L 206.695141 46.286289 
L 206.87253 46.043838 
L 207.04992 46.722706 
L 207.22731 46.625723 
L 207.582089 47.619776 
L 207.759478 46.334773 
L 208.114258 46.359023 
L 208.469037 47.110625 
L 208.646427 46.771191 
L 208.823816 47.959224 
L 209.001206 47.837992 
L 209.178595 46.771191 
L 209.355985 46.431757 
L 209.533375 46.698457 
L 209.710764 47.304591 
L 209.888154 46.189306 
L 210.242933 47.280342 
L 210.597712 47.06214 
L 210.775102 47.668275 
L 210.952492 46.79544 
L 211.129881 46.674207 
L 211.307271 47.110625 
L 211.484661 47.134874 
L 211.83944 46.916658 
L 212.016829 47.328841 
L 212.371609 46.868174 
L 212.548998 47.134874 
L 212.726388 47.08639 
L 212.903778 47.450059 
L 213.081167 46.843924 
L 213.258557 47.353076 
L 213.613336 46.552989 
L 213.790726 46.965157 
L 213.968115 48.977527 
L 214.145505 46.989406 
L 214.322895 46.965157 
L 214.500284 46.819689 
L 214.677674 46.989406 
L 214.855063 46.383272 
L 215.032453 47.013641 
L 215.209843 46.431757 
L 215.564622 46.625723 
L 215.919401 46.625723 
L 216.096791 47.110625 
L 216.27418 46.189306 
L 216.45157 46.286289 
L 216.62896 46.771191 
L 216.806349 45.874107 
L 216.983739 46.189306 
L 217.161129 47.013641 
L 217.338518 46.165056 
L 217.515908 47.450059 
L 217.693297 46.577224 
L 217.870687 46.746941 
L 218.402856 45.874107 
L 218.580246 46.649972 
L 218.757635 46.722706 
L 219.112414 46.068073 
L 219.289804 46.746941 
L 219.467194 46.043838 
L 219.821973 46.043838 
L 219.999363 46.359023 
L 220.176752 46.23779 
L 220.531531 45.558922 
L 220.708921 46.092322 
L 220.886311 45.631656 
L 221.0637 47.231857 
L 221.41848 45.801373 
L 221.595869 46.262039 
L 221.773259 45.704389 
L 222.128038 47.08639 
L 222.305428 46.383272 
L 222.482817 46.577224 
L 222.660207 45.655905 
L 222.837597 46.262039 
L 223.014986 45.728639 
L 223.724545 46.79544 
L 224.256714 46.431757 
L 224.611493 45.704389 
L 224.788882 46.043838 
L 224.966272 45.461939 
L 225.143662 46.892423 
L 225.321051 45.946855 
L 225.498441 45.752888 
L 225.675831 46.262039 
L 225.85322 46.310524 
L 226.03061 46.116572 
L 226.385389 46.868174 
L 226.562779 45.849872 
L 226.917558 46.068073 
L 227.094948 46.601474 
L 227.272337 46.068073 
L 227.449727 46.456006 
L 227.627116 46.359023 
L 227.804506 47.06214 
L 228.159285 46.310524 
L 228.336675 46.722706 
L 228.514065 46.334773 
L 228.868844 46.52874 
L 229.223623 45.558922 
L 229.401013 45.583171 
L 229.578402 45.874107 
L 229.755792 46.916658 
L 229.933182 45.655905 
L 230.110571 45.777138 
L 230.287961 46.674207 
L 230.46535 46.940908 
L 230.64274 45.995339 
L 230.82013 45.752888 
L 230.997519 46.019589 
L 231.174909 45.171003 
L 231.352299 46.019589 
L 231.529688 46.116572 
L 231.707078 45.680155 
L 232.061857 45.849872 
L 232.416636 47.595541 
L 232.771416 46.552989 
L 232.948805 46.601474 
L 233.303584 46.116572 
L 233.658364 46.23779 
L 234.013143 46.189306 
L 234.190533 46.868174 
L 234.367922 45.825622 
L 234.545312 45.995339 
L 234.722701 46.50449 
L 234.900091 46.50449 
L 235.077481 46.916658 
L 235.43226 45.655905 
L 235.60965 46.722706 
L 235.787039 46.601474 
L 235.964429 46.286289 
L 236.141818 46.23779 
L 236.319208 47.692524 
L 236.496598 46.019589 
L 236.673987 46.50449 
L 236.851377 46.601474 
L 237.028766 46.359023 
L 237.206156 45.801373 
L 237.383546 45.801373 
L 237.560935 47.013641 
L 237.738325 45.534672 
L 237.915715 45.752888 
L 238.093104 45.413454 
L 238.447883 45.704389 
L 238.625273 46.213555 
L 238.802663 46.140807 
L 238.980052 45.752888 
L 239.334832 45.510437 
L 239.512221 45.655905 
L 239.689611 46.50449 
L 240.04439 45.704389 
L 240.22178 46.79544 
L 240.399169 45.801373 
L 240.576559 46.892423 
L 240.753949 45.825622 
L 240.931338 45.874107 
L 241.108728 46.23779 
L 241.286117 46.140807 
L 241.818286 45.437689 
L 241.995676 45.607421 
L 242.173066 45.607421 
L 242.527845 46.625723 
L 242.705234 45.558922 
L 242.882624 46.456006 
L 243.060014 45.364955 
L 243.237403 45.413454 
L 243.414793 45.607421 
L 243.592183 45.122505 
L 243.769572 45.025521 
L 244.124351 45.486188 
L 244.301741 44.977037 
L 244.479131 45.195238 
L 244.65652 45.777138 
L 244.83391 45.171003 
L 245.188689 45.437689 
L 245.366079 46.722706 
L 245.543468 45.558922 
L 245.898248 46.213555 
L 246.075637 45.461939 
L 246.253027 46.359023 
L 246.785196 45.316471 
L 246.962585 45.655905 
L 247.139975 47.328841 
L 247.494754 45.680155 
L 247.672144 45.583171 
L 247.849534 45.752888 
L 248.026923 45.631656 
L 248.204313 47.547042 
L 248.381702 46.116572 
L 248.559092 45.752888 
L 248.736482 45.898356 
L 248.913871 45.461939 
L 249.091261 46.189306 
L 249.268651 45.510437 
L 249.44604 45.413454 
L 249.62343 46.552989 
L 249.800819 44.952787 
L 249.978209 45.461939 
L 250.155599 45.267972 
L 250.687768 45.752888 
L 251.042547 45.413454 
L 251.219936 45.898356 
L 251.397326 45.437689 
L 251.574716 46.286289 
L 251.929495 45.849872 
L 252.106885 45.267972 
L 252.284274 46.116572 
L 252.461664 45.874107 
L 252.816443 47.401574 
L 252.993833 45.849872 
L 253.171222 46.116572 
L 253.348612 45.849872 
L 253.526002 46.456006 
L 253.880781 46.383272 
L 254.05817 47.08639 
L 254.23556 47.06214 
L 254.590339 45.655905 
L 254.945119 46.698457 
L 255.122508 45.874107 
L 255.299898 45.922605 
L 255.654677 46.552989 
L 255.832067 46.50449 
L 256.009456 47.304591 
L 256.186846 46.480255 
L 256.541625 46.722706 
L 256.719015 46.334773 
L 256.896404 46.286289 
L 257.073794 46.407507 
L 257.605963 46.23779 
L 257.960742 46.552989 
L 258.138132 46.625723 
L 258.315521 46.213555 
L 258.492911 46.892423 
L 258.84769 45.437689 
L 259.02508 46.068073 
L 259.20247 47.910726 
L 259.379859 46.431757 
L 259.557249 46.746941 
L 259.734638 46.262039 
L 259.912028 46.601474 
L 260.089418 45.486188 
L 260.266807 46.50449 
L 260.444197 45.97109 
L 260.621587 45.995339 
L 260.798976 46.213555 
L 260.976366 45.922605 
L 261.331145 46.286289 
L 261.508535 45.437689 
L 261.685924 45.704389 
L 261.863314 46.431757 
L 262.040704 45.413454 
L 262.218093 45.680155 
L 262.395483 46.165056 
L 262.572872 45.243737 
L 262.750262 46.79544 
L 262.927652 46.262039 
L 263.105041 46.23779 
L 263.459821 45.510437 
L 263.63721 45.728639 
L 263.8146 46.359023 
L 263.991989 45.849872 
L 264.169379 46.23779 
L 264.346769 45.655905 
L 264.524158 46.310524 
L 264.701548 45.267972 
L 264.878938 45.486188 
L 265.056327 45.267972 
L 265.233717 45.680155 
L 265.411106 45.655905 
L 265.588496 45.049771 
L 265.765886 44.880054 
L 265.943275 45.510437 
L 266.120665 45.195238 
L 266.298055 46.916658 
L 266.652834 45.34072 
L 266.830223 46.068073 
L 267.007613 45.171003 
L 267.362392 46.456006 
L 267.539782 45.801373 
L 267.717172 46.23779 
L 267.894561 44.928538 
L 268.071951 45.534672 
L 268.24934 45.292222 
L 268.42673 45.389205 
L 268.60412 46.286289 
L 268.781509 46.50449 
L 268.958899 46.431757 
L 269.136289 45.995339 
L 269.313678 46.262039 
L 269.668457 45.486188 
L 269.845847 45.292222 
L 270.023237 45.437689 
L 270.200626 45.025521 
L 270.378016 46.165056 
L 270.732795 45.001272 
L 270.910185 45.704389 
L 271.087574 45.752888 
L 271.264964 45.486188 
L 271.442354 45.825622 
L 271.619743 46.407507 
L 271.797133 45.534672 
L 271.974523 45.486188 
L 272.151912 45.558922 
L 272.329302 45.922605 
L 272.506691 45.534672 
L 272.684081 45.680155 
L 273.03886 46.456006 
L 273.21625 46.286289 
L 273.39364 45.728639 
L 273.571029 46.23779 
L 273.925808 45.777138 
L 274.103198 46.165056 
L 274.457977 44.977037 
L 274.635367 45.146754 
L 274.812756 44.904303 
L 274.990146 45.728639 
L 275.167536 45.316471 
L 275.344925 45.437689 
L 275.699705 46.50449 
L 275.877094 45.752888 
L 276.054484 45.558922 
L 276.231873 45.728639 
L 276.409263 45.171003 
L 276.764042 45.704389 
L 276.941432 45.171003 
L 277.118822 45.461939 
L 277.296211 45.098255 
L 277.65099 46.989406 
L 278.00577 45.995339 
L 278.183159 46.262039 
L 278.360549 45.97109 
L 278.537939 45.364955 
L 278.892718 45.461939 
L 279.247497 45.995339 
L 279.424887 45.995339 
L 279.602276 45.34072 
L 279.957056 46.165056 
L 280.134445 46.043838 
L 280.311835 46.674207 
L 280.489224 45.267972 
L 280.666614 44.904303 
L 280.844004 46.068073 
L 281.021393 46.092322 
L 281.376173 45.631656 
L 281.553562 46.625723 
L 281.730952 45.389205 
L 281.908341 45.534672 
L 282.085731 45.874107 
L 282.263121 45.728639 
L 282.44051 45.243737 
L 282.6179 45.631656 
L 282.79529 46.52874 
L 282.972679 45.34072 
L 283.150069 45.049771 
L 283.327458 45.001272 
L 283.504848 45.267972 
L 283.682238 45.098255 
L 283.859627 45.874107 
L 284.037017 45.777138 
L 284.391796 45.267972 
L 284.569186 45.195238 
L 284.746575 45.34072 
L 284.923965 45.898356 
L 285.101355 45.558922 
L 285.278744 44.977037 
L 285.456134 45.437689 
L 285.633524 44.880054 
L 285.810913 46.334773 
L 285.988303 45.389205 
L 286.520472 45.631656 
L 286.697861 45.171003 
L 287.052641 45.049771 
L 287.23003 44.78307 
L 287.762199 45.922605 
L 287.939589 45.219488 
L 288.116978 45.825622 
L 288.294368 45.07402 
L 288.471758 45.001272 
L 288.649147 45.171003 
L 288.826537 44.661838 
L 289.003926 44.589104 
L 289.358706 45.098255 
L 289.536095 44.710337 
L 289.890875 45.316471 
L 290.068264 44.904303 
L 290.245654 44.855804 
L 290.423043 45.07402 
L 290.600433 46.480255 
L 290.777823 45.049771 
L 290.955212 45.583171 
L 291.132602 45.631656 
L 291.309992 45.001272 
L 291.487381 45.558922 
L 291.84216 45.267972 
L 292.01955 45.07402 
L 292.19694 45.07402 
L 292.374329 46.625723 
L 292.551719 46.262039 
L 292.729109 45.146754 
L 292.906498 45.292222 
L 293.083888 45.655905 
L 293.261277 45.437689 
L 293.438667 46.843924 
L 293.616057 45.583171 
L 293.793446 45.146754 
L 293.970836 45.146754 
L 294.148226 45.001272 
L 294.325615 45.777138 
L 294.503005 45.171003 
L 294.680394 45.001272 
L 294.857784 45.849872 
L 295.035174 44.589104 
L 295.035174 44.589104 
" style="fill:none;stroke:#ff7f0e;stroke-dasharray:6.4,1.6,1,1.6;stroke-dashoffset:0;"/>
   </g>
   <g id="line2d_19">
    <path clip-path="url(#paace827145)" d="M 69.218182 239.81305 
L 69.416679 237.849174 
L 69.813673 237.849174 
L 70.01217 232.369713 
L 70.210666 237.849174 
L 70.409163 237.849174 
L 70.60766 236.539922 
L 71.203151 215.422179 
L 71.401648 194.837838 
L 71.798642 201.481074 
L 71.997139 187.055067 
L 72.195636 161.476169 
L 72.394133 160.554843 
L 72.592629 142.443539 
L 72.791126 145.910628 
L 72.989623 139.970502 
L 73.18812 126.271848 
L 73.585114 121.422773 
L 73.783611 105.251097 
L 73.982108 117.276816 
L 74.379102 101.105126 
L 74.577599 93.855763 
L 74.776096 91.382726 
L 75.173089 84.351565 
L 75.371586 89.370357 
L 75.570083 83.405996 
L 75.76858 86.363934 
L 75.967077 79.793425 
L 76.165574 79.041823 
L 76.364071 75.332269 
L 76.562568 79.405492 
L 77.356556 66.555438 
L 77.555053 65.537135 
L 77.753549 68.325356 
L 77.952046 58.893892 
L 78.150543 61.197212 
L 78.34904 61.87608 
L 78.547537 63.427783 
L 78.746034 63.282315 
L 78.944531 55.887456 
L 79.143028 55.838971 
L 79.341525 58.263509 
L 79.540022 57.778607 
L 79.738519 52.638582 
L 79.937016 53.438683 
L 80.135513 52.274899 
L 80.334009 55.160103 
L 80.532506 53.099249 
L 80.731003 55.135854 
L 80.9295 51.717249 
L 81.127997 53.6084 
L 81.326494 53.3417 
L 81.524991 51.547532 
L 81.723488 51.35358 
L 81.921985 50.650462 
L 82.120482 53.099249 
L 82.318979 51.668764 
L 82.517476 52.396131 
L 82.715973 51.32933 
L 82.914469 52.905283 
L 83.112966 52.299148 
L 83.311463 51.305081 
L 83.50996 52.056683 
L 83.708457 50.747445 
L 83.906954 51.159613 
L 84.105451 50.698947 
L 84.303948 50.553479 
L 84.502445 51.547532 
L 84.700942 51.038381 
L 84.899439 51.208098 
L 85.097936 49.995829 
L 85.296433 50.189795 
L 85.494929 49.486678 
L 85.693426 49.268462 
L 85.891923 49.850361 
L 86.09042 48.880543 
L 86.288917 50.020078 
L 86.487414 48.80781 
L 86.685911 49.60791 
L 86.884408 49.219977 
L 87.082905 49.801862 
L 87.479899 50.311028 
L 87.678396 49.535162 
L 87.876893 49.389695 
L 88.075389 50.311028 
L 88.273886 48.444126 
L 88.472383 47.959224 
L 88.67088 48.929028 
L 88.869377 48.51686 
L 89.266371 49.729129 
L 89.464868 48.177426 
L 89.663365 47.983459 
L 89.861862 50.577714 
L 90.060359 49.219977 
L 90.258856 48.735076 
L 90.457353 47.716759 
L 90.854346 49.098745 
L 91.052843 48.201675 
L 91.25134 48.589594 
L 91.449837 48.371392 
L 91.648334 48.710826 
L 91.846831 47.886476 
L 92.045328 48.759311 
L 92.243825 47.207608 
L 92.640819 47.134874 
L 93.037813 48.832059 
L 93.236309 50.262529 
L 93.434806 47.231857 
L 93.633303 48.468376 
L 93.8318 48.25016 
L 94.030297 47.716759 
L 94.228794 48.589594 
L 94.427291 46.892423 
L 94.625788 48.177426 
L 94.824285 47.716759 
L 95.022782 49.195728 
L 95.221279 48.201675 
L 95.419776 48.662328 
L 95.618272 48.031958 
L 95.816769 48.589594 
L 96.015266 48.686577 
L 96.213763 48.153176 
L 96.610757 48.274409 
L 96.809254 47.595541 
L 97.007751 48.49261 
L 97.206248 47.813742 
L 97.404745 48.104692 
L 97.603242 47.450059 
L 97.801739 47.716759 
L 98.000236 47.668275 
L 98.595726 46.771191 
L 98.794223 47.910726 
L 98.99272 47.037891 
L 99.191217 48.395642 
L 99.389714 47.425824 
L 99.588211 48.51686 
L 99.786708 48.080443 
L 99.985205 47.353076 
L 100.183702 47.498558 
L 100.382199 47.862241 
L 100.580696 47.862241 
L 100.779192 46.674207 
L 101.176186 46.843924 
L 101.374683 47.183359 
L 101.57318 48.080443 
L 101.771677 47.813742 
L 102.168671 46.649972 
L 102.367168 48.759311 
L 102.565665 48.22591 
L 102.764162 46.892423 
L 102.962659 46.868174 
L 103.161156 47.231857 
L 103.359652 47.110625 
L 103.558149 46.431757 
L 103.756646 46.746941 
L 103.955143 46.649972 
L 104.15364 47.013641 
L 104.352137 46.674207 
L 104.550634 47.547042 
L 104.749131 46.262039 
L 104.947628 46.262039 
L 105.146125 46.068073 
L 105.543119 47.547042 
L 105.741616 49.001776 
L 105.940112 46.819689 
L 106.138609 47.08639 
L 106.337106 46.625723 
L 106.7341 47.498558 
L 106.932597 46.407507 
L 107.131094 47.595541 
L 107.329591 46.965157 
L 107.528088 48.51686 
L 107.726585 47.450059 
L 107.925082 47.595541 
L 108.123579 47.377325 
L 108.322076 47.692524 
L 108.520572 47.765258 
L 108.719069 47.256107 
L 108.917566 47.547042 
L 109.116063 47.522807 
L 109.31456 47.037891 
L 109.711554 47.110625 
L 110.108548 46.819689 
L 110.307045 47.207608 
L 110.704039 46.359023 
L 110.902536 46.092322 
L 111.101032 46.480255 
L 111.299529 47.159124 
L 111.498026 46.165056 
L 111.696523 47.377325 
L 111.89502 46.552989 
L 112.093517 47.498558 
L 112.490511 46.456006 
L 112.689008 46.698457 
L 112.887505 47.280342 
L 113.284499 45.898356 
L 113.482996 46.092322 
L 113.681492 45.898356 
L 113.879989 46.383272 
L 114.078486 47.353076 
L 114.47548 46.746941 
L 114.673977 46.383272 
L 114.872474 47.595541 
L 115.070971 47.474308 
L 115.269468 46.140807 
L 115.467965 46.52874 
L 115.666462 46.23779 
L 115.864959 46.674207 
L 116.063456 45.777138 
L 116.460449 46.456006 
L 116.658946 46.771191 
L 116.857443 45.922605 
L 117.05594 47.134874 
L 117.254437 45.801373 
L 117.452934 45.437689 
L 117.849928 46.116572 
L 118.246922 47.837992 
L 118.445419 46.674207 
L 118.643915 46.552989 
L 118.842412 46.189306 
L 119.040909 46.310524 
L 119.239406 46.601474 
L 119.437903 46.189306 
L 119.6364 47.037891 
L 119.834897 46.23779 
L 120.033394 47.789493 
L 120.231891 46.625723 
L 120.430388 46.649972 
L 120.628885 47.037891 
L 120.827382 47.013641 
L 121.025879 47.183359 
L 121.224375 46.79544 
L 121.422872 46.746941 
L 121.621369 46.989406 
L 122.018363 46.577224 
L 122.21686 46.649972 
L 122.415357 46.043838 
L 122.812351 46.771191 
L 123.010848 46.262039 
L 123.209345 46.116572 
L 123.407842 45.825622 
L 123.606339 46.577224 
L 123.804835 46.601474 
L 124.003332 45.825622 
L 124.201829 47.08639 
L 124.400326 46.286289 
L 124.598823 47.207608 
L 124.79732 46.359023 
L 124.995817 46.092322 
L 125.392811 46.746941 
L 125.789805 45.437689 
L 125.988302 45.777138 
L 126.186799 45.655905 
L 126.385295 45.97109 
L 126.583792 47.037891 
L 126.782289 46.334773 
L 126.980786 46.189306 
L 127.179283 46.359023 
L 127.37778 47.377325 
L 127.576277 46.940908 
L 127.774774 45.34072 
L 127.973271 46.359023 
L 128.171768 46.092322 
L 128.370265 46.310524 
L 128.568762 45.486188 
L 128.767259 45.752888 
L 128.965755 45.583171 
L 129.164252 46.480255 
L 129.362749 45.437689 
L 129.561246 46.407507 
L 129.95824 44.952787 
L 130.355234 45.728639 
L 130.553731 46.286289 
L 130.752228 47.474308 
L 130.950725 46.116572 
L 131.149222 46.019589 
L 131.347719 45.389205 
L 131.347719 45.389205 
" style="fill:none;stroke:#2ca02c;stroke-dasharray:3.7,1.6;stroke-dashoffset:0;"/>
   </g>
   <g id="line2d_20">
    <path clip-path="url(#paace827145)" d="M 69.218182 242.116364 
L 69.37277 237.849174 
L 70.145708 237.849174 
L 70.454883 236.855112 
L 70.609471 203.784386 
L 70.764059 195.734915 
L 70.918646 204.245052 
L 71.073234 196.462282 
L 71.227822 198.013985 
L 71.536997 166.470719 
L 71.691585 164.26439 
L 71.846173 150.905178 
L 72.155348 150.056585 
L 72.309936 122.101641 
L 72.464523 125.617229 
L 72.619111 123.216927 
L 72.773699 114.24613 
L 72.928286 118.51332 
L 73.39205 92.740463 
L 73.546637 94.364914 
L 73.855813 82.314946 
L 74.0104 91.72216 
L 74.164988 83.866649 
L 74.319576 90.461393 
L 74.474163 79.260024 
L 74.628751 83.115047 
L 74.783339 77.368888 
L 74.937926 81.078428 
L 75.556277 71.137812 
L 75.710865 69.392143 
L 75.865453 70.41046 
L 76.02004 62.385231 
L 76.174628 66.822138 
L 76.483803 65.246186 
L 76.638391 65.537135 
L 76.792979 60.566828 
L 76.947566 63.136833 
L 77.102154 61.997298 
L 77.256742 62.385231 
L 77.41133 54.844904 
L 77.565917 53.390184 
L 77.875093 57.754357 
L 78.02968 56.687556 
L 78.184268 59.645494 
L 78.338856 54.190285 
L 78.493443 55.014635 
L 79.111794 51.499047 
L 79.266382 55.741988 
L 79.575557 53.075 
L 79.730145 52.565848 
L 79.884733 53.826602 
L 80.03932 51.789997 
L 80.193908 54.578218 
L 80.503083 51.377815 
L 80.657671 50.77168 
L 80.812259 50.723196 
L 81.121434 51.596031 
L 81.276022 52.565848 
L 81.43061 52.274899 
L 81.585197 51.280831 
L 81.739785 51.183848 
L 82.04896 49.583661 
L 82.203548 52.808299 
L 82.358136 49.026011 
L 82.512723 50.626213 
L 82.667311 49.60791 
L 82.821899 50.383762 
L 82.976487 49.462428 
L 83.131074 50.529229 
L 83.285662 50.214045 
L 83.44025 50.77168 
L 83.594837 49.438193 
L 83.749425 52.008198 
L 84.213188 48.347143 
L 84.367776 49.898846 
L 84.522363 49.535162 
L 84.676951 49.60791 
L 84.831539 50.044328 
L 84.986127 48.80781 
L 85.140714 49.098745 
L 85.295302 50.50498 
L 85.44989 50.044328 
L 85.759065 48.298658 
L 85.913653 50.311028 
L 86.06824 48.662328 
L 86.222828 48.322893 
L 86.377416 48.686577 
L 86.532003 48.613843 
L 86.686591 49.850361 
L 86.995767 49.510927 
L 87.150354 47.765258 
L 87.304942 47.328841 
L 87.45953 47.377325 
L 87.614117 48.031958 
L 87.923293 51.135364 
L 88.07788 47.498558 
L 88.232468 48.322893 
L 88.387056 47.862241 
L 88.541643 48.638093 
L 88.696231 48.735076 
L 88.850819 47.619776 
L 89.005407 49.704879 
L 89.159994 48.25016 
L 89.314582 49.098745 
L 89.46917 48.613843 
L 89.623757 49.316961 
L 89.778345 48.49261 
L 90.08752 49.413944 
L 90.396696 48.031958 
L 90.551284 48.468376 
L 90.705871 47.692524 
L 90.860459 49.122994 
L 91.015047 48.977527 
L 91.324222 48.128941 
L 91.47881 49.098745 
L 91.633397 48.177426 
L 91.787985 47.959224 
L 91.942573 48.856294 
L 92.09716 47.401574 
L 92.251748 48.274409 
L 92.406336 47.231857 
L 92.560924 49.389695 
L 92.715511 48.031958 
L 92.870099 49.001776 
L 93.024687 48.177426 
L 93.333862 47.837992 
L 93.48845 48.953277 
L 93.643037 48.298658 
L 93.797625 47.06214 
L 94.1068 47.280342 
L 94.261388 47.741008 
L 94.415976 48.710826 
L 94.570564 48.589594 
L 94.725151 47.328841 
L 94.879739 47.571291 
L 95.188914 49.001776 
L 95.343502 47.450059 
L 95.49809 47.474308 
L 95.652677 48.589594 
L 95.961853 46.456006 
L 96.11644 47.328841 
L 96.271028 46.989406 
L 96.734791 47.934975 
L 96.889379 46.625723 
L 97.043967 46.456006 
L 97.198554 46.116572 
L 97.353142 46.674207 
L 97.662317 49.753378 
L 97.816905 46.431757 
L 97.971493 47.304591 
L 98.12608 46.771191 
L 98.280668 47.353076 
L 98.435256 47.328841 
L 98.589844 46.674207 
L 98.744431 48.735076 
L 98.899019 47.110625 
L 99.053607 48.468376 
L 99.208194 47.377325 
L 99.362782 47.813742 
L 99.51737 47.134874 
L 99.671957 48.274409 
L 99.826545 48.128941 
L 99.981133 47.547042 
L 100.13572 47.595541 
L 100.290308 47.231857 
L 100.444896 47.159124 
L 100.599484 48.056193 
L 100.908659 47.06214 
L 101.063247 47.353076 
L 101.217834 48.322893 
L 101.372422 47.013641 
L 101.681597 47.522807 
L 101.836185 47.522807 
L 102.145361 46.698457 
L 102.299948 48.395642 
L 102.454536 47.110625 
L 102.609124 48.322893 
L 102.918299 47.08639 
L 103.072887 46.965157 
L 103.227474 47.983459 
L 103.382062 47.474308 
L 103.53665 46.019589 
L 103.691237 46.649972 
L 103.845825 46.601474 
L 104.000413 46.868174 
L 104.155001 47.934975 
L 104.309588 47.692524 
L 104.464176 46.843924 
L 104.927939 48.056193 
L 105.082527 46.456006 
L 105.391702 47.450059 
L 105.700877 46.262039 
L 105.855465 46.552989 
L 106.010053 46.359023 
L 106.319228 46.625723 
L 106.473816 47.353076 
L 106.782991 45.534672 
L 106.937579 45.583171 
L 107.092167 46.310524 
L 107.401342 49.583661 
L 107.55593 45.680155 
L 107.710517 46.577224 
L 107.865105 46.068073 
L 108.174281 46.52874 
L 108.328868 46.52874 
L 108.483456 48.201675 
L 108.638044 46.722706 
L 108.792631 47.813742 
L 108.947219 46.940908 
L 109.101807 47.304591 
L 109.256394 46.819689 
L 109.410982 47.716759 
L 109.56557 47.644025 
L 109.874745 47.08639 
L 110.029333 46.868174 
L 110.183921 47.110625 
L 110.338508 47.692524 
L 110.493096 47.304591 
L 110.647684 46.50449 
L 110.956859 47.571291 
L 111.111447 46.649972 
L 111.420622 46.746941 
L 111.57521 47.328841 
L 111.729798 46.165056 
L 111.884385 46.383272 
L 112.038973 47.934975 
L 112.193561 46.262039 
L 112.348148 47.668275 
L 112.502736 46.868174 
L 112.657324 46.698457 
L 112.811911 46.79544 
L 112.966499 47.498558 
L 113.275674 45.631656 
L 113.430262 46.043838 
L 113.58485 45.849872 
L 113.739438 46.334773 
L 113.894025 47.353076 
L 114.203201 46.916658 
L 114.357788 46.940908 
L 114.512376 47.401574 
L 114.666964 47.183359 
L 114.821551 46.140807 
L 114.976139 46.577224 
L 115.130727 46.625723 
L 115.285314 46.819689 
L 115.439902 45.946855 
L 115.59449 46.068073 
L 115.903665 45.97109 
L 116.058253 46.189306 
L 116.212841 47.013641 
L 116.522016 45.316471 
L 116.676604 45.316471 
L 116.831191 45.801373 
L 117.140367 49.316961 
L 117.294954 45.874107 
L 117.449542 46.383272 
L 117.60413 45.461939 
L 117.60413 45.461939 
" style="fill:none;stroke:#d62728;stroke-dasharray:1,1.65;stroke-dashoffset:0;"/>
   </g>
   <g id="line2d_21">
    <path clip-path="url(#paace827145)" d="M 69.218182 239.570597 
L 94.905885 239.570597 
L 94.905885 239.570597 
" style="fill:none;stroke:#00bfbf;stroke-linecap:square;"/>
   </g>
   <g id="patch_3">
    <path d="M 54 252 
L 54 34.56 
" style="fill:none;stroke:#000000;stroke-linecap:square;stroke-linejoin:miter;stroke-width:0.8;"/>
   </g>
   <g id="patch_4">
    <path d="M 388.8 252 
L 388.8 34.56 
" style="fill:none;stroke:#000000;stroke-linecap:square;stroke-linejoin:miter;stroke-width:0.8;"/>
   </g>
   <g id="patch_5">
    <path d="M 54 252 
L 388.8 252 
" style="fill:none;stroke:#000000;stroke-linecap:square;stroke-linejoin:miter;stroke-width:0.8;"/>
   </g>
   <g id="patch_6">
    <path d="M 54 34.56 
L 388.8 34.56 
" style="fill:none;stroke:#000000;stroke-linecap:square;stroke-linejoin:miter;stroke-width:0.8;"/>
   </g>
   <g id="legend_1">
    <g id="patch_7">
     <path d="M 273.359375 247 
L 381.8 247 
Q 383.8 247 383.8 245 
L 383.8 172.609375 
Q 383.8 170.609375 381.8 170.609375 
L 273.359375 170.609375 
Q 271.359375 170.609375 271.359375 172.609375 
L 271.359375 245 
Q 271.359375 247 273.359375 247 
z
" style="fill:#ffffff;opacity:0.8;stroke:#cccccc;stroke-linejoin:miter;"/>
    </g>
    <g id="line2d_22">
     <path d="M 275.359375 178.707812 
L 295.359375 178.707812 
" style="fill:none;stroke:#1f77b4;stroke-linecap:square;"/>
    </g>
    <g id="line2d_23"/>
    <g id="text_19">
     <!-- batchsize:1 -->
     <defs>
      <path d="M 48.6875 27.296875 
Q 48.6875 37.203125 44.609375 42.84375 
Q 40.53125 48.484375 33.40625 48.484375 
Q 26.265625 48.484375 22.1875 42.84375 
Q 18.109375 37.203125 18.109375 27.296875 
Q 18.109375 17.390625 22.1875 11.75 
Q 26.265625 6.109375 33.40625 6.109375 
Q 40.53125 6.109375 44.609375 11.75 
Q 48.6875 17.390625 48.6875 27.296875 
z
M 18.109375 46.390625 
Q 20.953125 51.265625 25.265625 53.625 
Q 29.59375 56 35.59375 56 
Q 45.5625 56 51.78125 48.09375 
Q 58.015625 40.1875 58.015625 27.296875 
Q 58.015625 14.40625 51.78125 6.484375 
Q 45.5625 -1.421875 35.59375 -1.421875 
Q 29.59375 -1.421875 25.265625 0.953125 
Q 20.953125 3.328125 18.109375 8.203125 
L 18.109375 0 
L 9.078125 0 
L 9.078125 75.984375 
L 18.109375 75.984375 
z
" id="DejaVuSans-62"/>
      <path d="M 54.890625 33.015625 
L 54.890625 0 
L 45.90625 0 
L 45.90625 32.71875 
Q 45.90625 40.484375 42.875 44.328125 
Q 39.84375 48.1875 33.796875 48.1875 
Q 26.515625 48.1875 22.3125 43.546875 
Q 18.109375 38.921875 18.109375 30.90625 
L 18.109375 0 
L 9.078125 0 
L 9.078125 75.984375 
L 18.109375 75.984375 
L 18.109375 46.1875 
Q 21.34375 51.125 25.703125 53.5625 
Q 30.078125 56 35.796875 56 
Q 45.21875 56 50.046875 50.171875 
Q 54.890625 44.34375 54.890625 33.015625 
z
" id="DejaVuSans-68"/>
      <path d="M 5.515625 54.6875 
L 48.1875 54.6875 
L 48.1875 46.484375 
L 14.40625 7.171875 
L 48.1875 7.171875 
L 48.1875 0 
L 4.296875 0 
L 4.296875 8.203125 
L 38.09375 47.515625 
L 5.515625 47.515625 
z
" id="DejaVuSans-7a"/>
      <path d="M 11.71875 12.40625 
L 22.015625 12.40625 
L 22.015625 0 
L 11.71875 0 
z
M 11.71875 51.703125 
L 22.015625 51.703125 
L 22.015625 39.3125 
L 11.71875 39.3125 
z
" id="DejaVuSans-3a"/>
     </defs>
     <g transform="translate(303.359375 182.207812)scale(0.1 -0.1)">
      <use xlink:href="#DejaVuSans-62"/>
      <use x="63.476562" xlink:href="#DejaVuSans-61"/>
      <use x="124.755859" xlink:href="#DejaVuSans-74"/>
      <use x="163.964844" xlink:href="#DejaVuSans-63"/>
      <use x="218.945312" xlink:href="#DejaVuSans-68"/>
      <use x="282.324219" xlink:href="#DejaVuSans-73"/>
      <use x="334.423828" xlink:href="#DejaVuSans-69"/>
      <use x="362.207031" xlink:href="#DejaVuSans-7a"/>
      <use x="414.697266" xlink:href="#DejaVuSans-65"/>
      <use x="476.220703" xlink:href="#DejaVuSans-3a"/>
      <use x="509.912109" xlink:href="#DejaVuSans-31"/>
     </g>
    </g>
    <g id="line2d_24">
     <path d="M 275.359375 193.385938 
L 295.359375 193.385938 
" style="fill:none;stroke:#ff7f0e;stroke-dasharray:6.4,1.6,1,1.6;stroke-dashoffset:0;"/>
    </g>
    <g id="line2d_25"/>
    <g id="text_20">
     <!-- batchsize:5 -->
     <g transform="translate(303.359375 196.885938)scale(0.1 -0.1)">
      <use xlink:href="#DejaVuSans-62"/>
      <use x="63.476562" xlink:href="#DejaVuSans-61"/>
      <use x="124.755859" xlink:href="#DejaVuSans-74"/>
      <use x="163.964844" xlink:href="#DejaVuSans-63"/>
      <use x="218.945312" xlink:href="#DejaVuSans-68"/>
      <use x="282.324219" xlink:href="#DejaVuSans-73"/>
      <use x="334.423828" xlink:href="#DejaVuSans-69"/>
      <use x="362.207031" xlink:href="#DejaVuSans-7a"/>
      <use x="414.697266" xlink:href="#DejaVuSans-65"/>
      <use x="476.220703" xlink:href="#DejaVuSans-3a"/>
      <use x="509.912109" xlink:href="#DejaVuSans-35"/>
     </g>
    </g>
    <g id="line2d_26">
     <path d="M 275.359375 208.064063 
L 295.359375 208.064063 
" style="fill:none;stroke:#2ca02c;stroke-dasharray:3.7,1.6;stroke-dashoffset:0;"/>
    </g>
    <g id="line2d_27"/>
    <g id="text_21">
     <!-- batchsize:20 -->
     <g transform="translate(303.359375 211.564063)scale(0.1 -0.1)">
      <use xlink:href="#DejaVuSans-62"/>
      <use x="63.476562" xlink:href="#DejaVuSans-61"/>
      <use x="124.755859" xlink:href="#DejaVuSans-74"/>
      <use x="163.964844" xlink:href="#DejaVuSans-63"/>
      <use x="218.945312" xlink:href="#DejaVuSans-68"/>
      <use x="282.324219" xlink:href="#DejaVuSans-73"/>
      <use x="334.423828" xlink:href="#DejaVuSans-69"/>
      <use x="362.207031" xlink:href="#DejaVuSans-7a"/>
      <use x="414.697266" xlink:href="#DejaVuSans-65"/>
      <use x="476.220703" xlink:href="#DejaVuSans-3a"/>
      <use x="509.912109" xlink:href="#DejaVuSans-32"/>
      <use x="573.535156" xlink:href="#DejaVuSans-30"/>
     </g>
    </g>
    <g id="line2d_28">
     <path d="M 275.359375 222.742188 
L 295.359375 222.742188 
" style="fill:none;stroke:#d62728;stroke-dasharray:1,1.65;stroke-dashoffset:0;"/>
    </g>
    <g id="line2d_29"/>
    <g id="text_22">
     <!-- batchsize:100 -->
     <g transform="translate(303.359375 226.242188)scale(0.1 -0.1)">
      <use xlink:href="#DejaVuSans-62"/>
      <use x="63.476562" xlink:href="#DejaVuSans-61"/>
      <use x="124.755859" xlink:href="#DejaVuSans-74"/>
      <use x="163.964844" xlink:href="#DejaVuSans-63"/>
      <use x="218.945312" xlink:href="#DejaVuSans-68"/>
      <use x="282.324219" xlink:href="#DejaVuSans-73"/>
      <use x="334.423828" xlink:href="#DejaVuSans-69"/>
      <use x="362.207031" xlink:href="#DejaVuSans-7a"/>
      <use x="414.697266" xlink:href="#DejaVuSans-65"/>
      <use x="476.220703" xlink:href="#DejaVuSans-3a"/>
      <use x="509.912109" xlink:href="#DejaVuSans-31"/>
      <use x="573.535156" xlink:href="#DejaVuSans-30"/>
      <use x="637.158203" xlink:href="#DejaVuSans-30"/>
     </g>
    </g>
    <g id="line2d_30">
     <path d="M 275.359375 237.420313 
L 295.359375 237.420313 
" style="fill:none;stroke:#00bfbf;stroke-linecap:square;"/>
    </g>
    <g id="line2d_31"/>
    <g id="text_23">
     <!-- batchsize:1000 -->
     <g transform="translate(303.359375 240.920313)scale(0.1 -0.1)">
      <use xlink:href="#DejaVuSans-62"/>
      <use x="63.476562" xlink:href="#DejaVuSans-61"/>
      <use x="124.755859" xlink:href="#DejaVuSans-74"/>
      <use x="163.964844" xlink:href="#DejaVuSans-63"/>
      <use x="218.945312" xlink:href="#DejaVuSans-68"/>
      <use x="282.324219" xlink:href="#DejaVuSans-73"/>
      <use x="334.423828" xlink:href="#DejaVuSans-69"/>
      <use x="362.207031" xlink:href="#DejaVuSans-7a"/>
      <use x="414.697266" xlink:href="#DejaVuSans-65"/>
      <use x="476.220703" xlink:href="#DejaVuSans-3a"/>
      <use x="509.912109" xlink:href="#DejaVuSans-31"/>
      <use x="573.535156" xlink:href="#DejaVuSans-30"/>
      <use x="637.158203" xlink:href="#DejaVuSans-30"/>
      <use x="700.78125" xlink:href="#DejaVuSans-30"/>
     </g>
    </g>
   </g>
  </g>
 </g>
 <defs>
  <clipPath id="paace827145">
   <rect height="217.44" width="334.8" x="54" y="34.56"/>
  </clipPath>
 </defs>
</svg>
